<?xml version="1.0" encoding="utf-8"?>
<!-- Generator: Adobe Illustrator 24.0.1, SVG Export Plug-In . SVG Version: 6.00 Build 0)  -->
<svg version="1.1" id="Layer_1" xmlns="http://www.w3.org/2000/svg" xmlns:xlink="http://www.w3.org/1999/xlink" x="0px" y="0px"
	 viewBox="0 0 500 500" style="enable-background:new 0 0 500 500;" xml:space="preserve">
<style type="text/css">
	.st0{fill:#D8A798;}
	.st1{fill:#97A5C1;}
	.st2{fill:#808CB2;}
	.st3{fill:#028487;}
	.st4{fill:#CC9483;}
	.st5{fill:url(#SVGID_1_);}
	.st6{fill:#00A5A5;}
	.st7{fill:#893170;}
	.st8{fill:#66124C;}
	.st9{fill:#D3DCEA;}
	.st10{fill:#A0593A;}
	.st11{fill:#BA784A;}
	.st12{fill:#151823;}
	.st13{fill:#2A4FC6;}
	.st14{fill:#282A35;}
</style>
<g>
	<path class="st0" d="M384.34,166.88c-6.21,9.66-9.83,26.14-9.83,26.14l6.47,7.51c0,0,18.89-15.01,21.48-31.57
		c0.58-3.69,3.28-6.56,0.17-10c0,0-20.88-38.49-22.95-39.17c-2.07-0.69-17.6,16.22-16.22,19.33
		C364.84,142.21,384.34,166.88,384.34,166.88z"/>
	<g>
		<g>
			<path class="st1" d="M290.81,420.26c0.5-4.79,2.41-7.89,0.28-32.61c-0.26-3.01,21.5-4.04,21.5-4.04
				c-0.95,12.15-6.23,22.87,7.16,34.03c3.1,2.59,9.56,4.22,12.82,8.13c0.5,0.59,3.37,9.88-7.27,11.35
				c-10.47,1.44-11.78-0.36-20.46-5.65c-0.53-0.32-2.81-1.43-2.81-1.43S289.71,430.88,290.81,420.26z"/>
			<path class="st2" d="M253.8,392.95l-20.47-2.83c0,0-0.28,2-1.87,9.31c-2.96,13.52-8.23,18.46-12.61,22
				c-3.35,2.69-5.33,5.35-5.33,8.86l0.83,5.85c0,0,2.19,2.63,6.32,3.15c8.27,1.08,17.81-1.99,19.9-5.07
				c0.91-1.34,6.9-3.66,9.66-5.48c0,0,3.33-7.82,0.93-14.59C248.76,407.38,253.8,392.95,253.8,392.95z"/>
			<path class="st2" d="M326.65,170.01c0.09,2.21,3.95,10.61,4,12.67c0.67,22.81,0.07,31.7,0.08,37.69
				c0.01,6.55-1.7,92.22-6.45,108.62c-3.74,12.96-0.98,62.13-2.38,73.66c-0.71,5.88-3.34,10.81-3.34,10.81s-14.19-7.42-30.02,4.41
				c0,0-4.07-2.64-4.28-12.26c-0.94-40.56,2.14-56.44,5.65-83.15c1.28-9.73-1.66-69.2-1.7-79.05c-0.01-7.32-11.24,60.08-17.56,83.04
				c0,0-6.89,51.41-9.27,69.57c-2.5,19.02-7.82,24.58-7.82,24.58s-18.71-11.54-29.81-4.96c-0.41-6.55-3.32-5.8-1.92-17.65
				c1.75-14.76,7.23-53.08,10.69-75.84c4.25-28.08,9.22-69.63,10.76-99.1c1.51-29.5,10.14-43.7,13.39-49.59
				C259.93,167.54,326.65,170.01,326.65,170.01z"/>
		</g>
		<path class="st1" d="M316.27,192.65c1.05,17.32,7.36,103.4,0.53,123.43c-6.83,20.03-4.72,23.28-4.72,25.44
			c0,2.15,2.62,47.1,0,52.5c-2.63,5.41-21.02,10.83-15.76,10.83c5.25,0,19.45-3.79,17.87-2.17c-1.57,1.63-21.02,5.41-18.39,6.5
			c2.63,1.08,19.43,1.63,22.59,1.08c3.15-0.54,5.26-27.61,4.72-49.8c-0.52-22.2,1.59-23.81,3.69-45.48
			c2.1-21.64,6.83-99.06,4.2-120.72C328.35,172.61,316.27,192.65,316.27,192.65z"/>
		<path class="st1" d="M214.18,427.1c0.79,7.11,11.63,5.42,16.35,4.87c4.73-0.53,8.93-5.54,14.19-6.09
			c5.28-0.54,9.08-3.28,6.45-11.75c-1.19-3.81-16.43-9.63-20.63-5.29c-4.2,4.32-4.47,6.49-8.67,9.74
			C217.66,421.83,214.18,427.1,214.18,427.1z"/>
		<path class="st2" d="M290.53,422.18c2.62,3.23,4.46,4.33,8.39,4.6c3.94,0.27,12.25,3.34,15.4,4.97
			c3.15,1.63,17.01,1.96,19.11-1.82c-0.26,3.24-2.36,5.78-2.36,5.78s-10.63,3.96-19.12,0.11c-6.34-2.9-9.98-5.51-13.19-4.87
			c-3.22,0.64-6.68-0.91-7.46-2.82C290.53,426.23,290.53,422.18,290.53,422.18z"/>
	</g>
	<g>
		<path class="st3" d="M375.06,109.21c3.97,3.05,3.17,4.2,10.12,13.66c5.42,7.38,12.05,19.84,12.62,22.96
			c0.59,3.13-26.1,12.3-24.85,11.04c1.3-1.31-20.28-9.2-20.36-14.15C352.5,137.77,375.06,109.21,375.06,109.21z"/>
	</g>
	<g>
		<path class="st4" d="M361.41,106.72c-0.92,5.45-20.95,20.29-25.73,17.2c-2.57-1.66-18.12-38.05-18.12-38.05s13.47-2.32,16.39-5.61
			c5.37-6.05,13.4-12.56,15.44-16.91C351.36,59.15,361.58,105.74,361.41,106.72z"/>
		<g>
			
				<linearGradient id="SVGID_1_" gradientUnits="userSpaceOnUse" x1="204.6674" y1="447.4254" x2="225.0849" y2="393.681" gradientTransform="matrix(0.9179 0.3969 -0.3969 0.9179 325.9577 -395.8407)">
				<stop  offset="0" style="stop-color:#FFFFFF"/>
				<stop  offset="0.5165" style="stop-color:#C6C0B9"/>
			</linearGradient>
			<path class="st5" d="M357.85,101.76c-24.6,12.47-29.84,21.18-33.8,18.37c-3.32-2.34,0.07-31.58-0.45-35.39
				c8.97,2.07,22.27-19.52,24.82-29.1C348.42,55.64,359.44,98.71,357.85,101.76z"/>
		</g>
	</g>
	<path class="st3" d="M326.71,172.74c3.19-7.91,19.56-20.56,22.09-23.47c2.53-2.86,23.28-21.26,23.28-21.26s6.85-17.16,5.37-18.25
		c-4.37-3.2-10.03-12.86-11.05-10.52c-1.94,4.44-12.08,16.73-25.18,18.98c-2.43-0.86-13.99-37.1-13.99-37.1
		c-7.61,1.22-20.19,2.08-29.16,4.83c-3.28,1.01-12.08,9.23-20.11,30.97c-1.33,3.61-9.77,21.87-13.37,29.6
		c-4.48,9.68-17.78,43.08-27.65,64.99c-0.13,0.29,14.52,12.88,31.19,19.59c25.43,10.24,63.78,10.2,63.93,9.81
		C338.99,223.2,324.9,177.24,326.71,172.74z"/>
	<g>
		<path class="st6" d="M342.76,120.12c-0.98-0.39-10.54-21.57-15.36-31.92c-9.32-0.26-18.55,2.77-17.94,5.18
			c2.38,9.33,3.1,17.28-1.38,29.33c-4.5,12.05-10.76,13.89-12.26,20.35c-1.72,7.41-5.52,16.57-15.18,38.65
			c-5.15,11.75-18.98,47.8-18.98,47.8s29.74,14.41,64.03,18.3c1.96-5.52,4.69-15.52,7.41-22.44c5.77-16.41,9.02-51.81,10.18-54.7
			c3.19-7.9,6.46-11.6,8.97-14.49c13.11-13.8,25.79-42.93,23.12-44.86c-2.15-1.56-2.05-1.95-9.49-8.8
			C362.91,106.95,350.09,117.73,342.76,120.12z"/>
	</g>
	<g>
		<path class="st3" d="M277.35,175.96c5.95,2.59,16,5.21,18.69,5.8c2.7,0.58-5.45,27.96-7.98,27.8
			c-8.69-0.57-22.87-6.04-22.44-11.09C266.05,193.4,277.35,175.96,277.35,175.96z"/>
		<path class="st6" d="M275.54,175.9c6.22,2.71,16.67,5.6,19.47,6.26c2.79,0.67-4.96,25.86-7.98,26.02
			c-7.37,0.37-22.72-7.65-22.1-9.83C266.28,193.67,275.54,175.9,275.54,175.9z"/>
	</g>
	<path class="st3" d="M326.53,80.78c-1.03,5.77,11.66,41.55,14.46,41.9c2.79,0.34,27.27-15.75,26.96-18.43
		c-0.32-2.69-1.62-1.17-1.62-1.17s-22.3,16.46-23.39,14.8c-8.45-12.77-13.81-37.1-13.81-37.1H326.53z"/>
	<g>
		<g>
			<path class="st1" d="M414.92,329.85c-0.74,1.63-2.14,2.59-3.11,2.15l-145.44-66.22c-0.97-0.44-1.17-2.12-0.44-3.77l0,0
				c0.75-1.62,2.15-2.58,3.12-2.13l145.44,66.22C415.47,326.54,415.66,328.22,414.92,329.85L414.92,329.85z"/>
			<path class="st2" d="M419.16,431.28c0,2.39-1.96,4.34-4.34,4.34l0,0c-2.39,0-4.33-1.95-4.33-4.34V281.33
				c0-2.4,1.95-4.35,4.33-4.35l0,0c2.39,0,4.34,1.95,4.34,4.35V431.28z"/>
			<path class="st1" d="M448.01,357.1c-0.75,1.63-2.25,2.54-3.36,2.03l-165.54-75.37c-1.11-0.5-1.42-2.24-0.67-3.87l0,0
				c0.74-1.63,2.25-2.54,3.36-2.03l165.54,75.37C448.45,353.74,448.76,355.47,448.01,357.1L448.01,357.1z"/>
			<path class="st2" d="M450.13,443.41c0,2.69-2.18,4.86-4.87,4.86l0,0c-2.69,0-4.86-2.17-4.86-4.86V294.51
				c0-2.69,2.18-4.87,4.86-4.87l0,0c2.68,0,4.87,2.18,4.87,4.87V443.41z"/>
		</g>
		<g>
			<path class="st1" d="M99.54,329.85c0.73,1.63,2.13,2.59,3.12,2.15l145.43-66.22c0.97-0.44,1.17-2.12,0.43-3.77l0,0
				c-0.75-1.62-2.14-2.58-3.11-2.13L99.97,326.09C98.99,326.54,98.79,328.22,99.54,329.85L99.54,329.85z"/>
			<path class="st2" d="M95.3,431.28c0,2.39,1.94,4.34,4.33,4.34l0,0c2.39,0,4.34-1.95,4.34-4.34V281.33c0-2.4-1.95-4.35-4.34-4.35
				l0,0c-2.39,0-4.33,1.95-4.33,4.35V431.28z"/>
			<path class="st1" d="M66.44,357.1c0.74,1.63,2.26,2.54,3.36,2.03l165.54-75.37c1.12-0.5,1.42-2.24,0.68-3.87l0,0
				c-0.74-1.63-2.26-2.54-3.36-2.03L67.12,353.23C66,353.74,65.7,355.47,66.44,357.1L66.44,357.1z"/>
			<path class="st2" d="M64.32,443.41c0,2.69,2.17,4.86,4.86,4.86l0,0c2.69,0,4.86-2.17,4.86-4.86V294.51
				c0-2.69-2.18-4.87-4.86-4.87l0,0c-2.69,0-4.86,2.18-4.86,4.87V443.41z"/>
		</g>
		<g>
			<path class="st7" d="M475.61,273.97c3.72,5.71,6.3,14.77-2.41,14.77l-217.2,0.43c-8.72,0-6.47-24.1-6.47-24.1
				c4.19-5.01,6.2-12.77,13.64-12.77l193.02,0.97c7.44,0,13.4,11.45,16.67,16.46L475.61,273.97z"/>
			<path class="st8" d="M479.26,284.93c0,5.82-5.43,10.55-12.14,10.55H261.59c-6.7,0-12.14-4.73-12.14-10.55l0,0
				c0-5.83,5.44-10.56,12.14-10.56h205.53C473.83,274.37,479.26,279.1,479.26,284.93L479.26,284.93z"/>
			<path class="st7" d="M246.59,288.73L29.4,289.16c-8.74,0-8.45-7.39-3.68-13.1l3.53-4.23c4.19-5.02,13.66-18.01,21.1-18.01h186.79
				c7.43,0,12.46,1.14,15.73,6.16C252.87,259.98,255.31,288.73,246.59,288.73z"/>
			<path class="st8" d="M252.67,284.93c0,5.82-5.44,10.55-12.14,10.55H35c-6.72,0-12.14-4.73-12.14-10.55l0,0
				c0-5.83,5.42-10.56,12.14-10.56h205.53C247.23,274.37,252.67,279.1,252.67,284.93L252.67,284.93z"/>
		</g>
	</g>
	<path class="st9" d="M404.43,248.66c8.41-2.86,26.16-14.57,31.12-8.58c4.97,6,26.5,22.38,18.97,24.73
		c-7.55,2.35-57.51,5.58-61.12-0.5C389.78,258.21,404.43,248.66,404.43,248.66z"/>
	<path class="st10" d="M430.73,247.8c4.1,3.7,16.31,12.1,18.23,9.92c1.93-2.17,4.52,0.33,5.95,0.47c1.42,0.15-0.06-0.39,4.11,2.21
		c1.49,0.9,1.27-3,3.86-2.01c2.58,1.02,2.75,2.9,3.99,4.79c0.33-1.39,0.43-7.12-1.75-9.78c-2.17-2.64-6.51-6.34-11.12-6.43
		C449.37,246.9,430.73,247.8,430.73,247.8z"/>
	<path class="st4" d="M80.02,249.18c0.49-0.46,0.86-1,0.92-1.47c0.11-0.99-1.33-0.3-1.92-0.12c-0.03-0.05-0.07-0.1-0.09-0.15
		c0.61-0.34,2.79-0.48,1.98-1.72c-0.28-0.42-0.95-0.34-1.52-0.2c0.57-0.24,1.23-0.64,1.36-1.25c0.25-1.09-0.18-0.7-0.97-0.88
		l-0.73-0.02c0.06-0.05,0.09-0.13,0.16-0.18c2.39-2.1-0.09-3.83-2.21-3.63c-3.08,0.3-1.65,1.61-5.2,1.47
		c-1.28-0.05-2.96,2.52-4.36,3.31c-2.46,1.38-5.06,1.95-5.6,4.35c-0.84,3.77,21.47,4.32,21.47,4.32
		C81.95,251.61,80.86,250.34,80.02,249.18z"/>
	<g>
		<path class="st4" d="M372.33,261c-0.14-5.81-3.41-7.87-7.51-8.76c-9.31-1.12-13.52,0.96-19.39,1.14
			c-15.11,0.16-33.74,0.65-41.17,0.68c-2.62,0.01-6.12,0.26-10.02,0.63c-14.02,2-34.42,7.55-38.52,7.44
			c-0.15-0.08-0.28-0.2-0.44-0.26c-6.37-2.38-8.81-1.28-11.11-2.31c-3.46-1.55-5.76-1.5-7.24-1.83c-1.16-0.26-1,0.73-1,0.73
			s2.87,0.62,7.04,3.13c0,0-10.08-4.55-10.89-2.95c-0.11,0.25,6.38,2.99,6.86,3.4c-1.56-0.7-8.51-3.62-8.74-2.59
			c-0.38,1.66,9.35,5.56,9.35,5.56s-6.59-2.26-8.8-3.95c-0.63-0.49-1.13,0.17-1.08,0.45c0.23,1.24,5.36,5.35,10.41,7.57
			c0.33,0.15,1.14,0.26,2.18,0.34c3.74,0.58,11.2,0.85,14.83,0.9c9.4,0.88,35.59-0.22,46.16-2.2c0,0,49.6,4.51,58.83,3.4
			c16.84-2.02,9.88-5.32,10.2-9.72c0.01-0.04-0.01-0.08-0.01-0.12C372.3,261.47,372.34,261.26,372.33,261z"/>
	</g>
	<g>
		<path class="st4" d="M404.01,218.68c-11.68,7.51-16.7,8.26-25.33,4.39c0,0-4.46-24.44-16.03-25.74
			c-8.72-0.99-65.06,17.17-72.29,16.97c-7.22-0.22-20.4-10.26-30.81-10.11c-10.42,0.14-22.78,2.51-22.78,2.51l6.51,58.65
			c0,0,7.12,4.56,46.03-4.45c5.11-1.19,81.02,16.77,84.4,5.93c1.99-6.36,6.11-19.75,9.74-20.1c4.86-1.07,9.97,0.65,20.07,4.44
			C411.82,254.28,404.01,218.68,404.01,218.68z"/>
	</g>
	<g>
		<path class="st10" d="M446.12,251.3c-18.95,3.79-44.64,6.35-49.3,0.41c-3.17-4.04,1.78-29.8,0.89-29.6
			c-1.57,0.33,11.35-14.44,23.38-13.01C433.11,210.55,446.12,251.3,446.12,251.3z"/>
		<path class="st10" d="M466.33,244.51c3.52,1.04,3.94,5.35,4.5,6.75c-0.03-0.09,0.13-1.57,0.17-1.69c0.6-2.19,1.61-7.71-1.81-8.06
			c-3.39-0.36-2.71-6.82-6.3-8.24c-3.59-1.4-0.85-4.25-4.05-3.74c-2.6,0.41-1.85-7.23-5.62-7.56c-8.63-0.75-4-3.39-9.1-7.31
			c-4.04-3.15-17.37-8.94-28.09-4.62c0,0,12.97,15.03,14.59,19.13c7.56,13.04-9.67,18.32-4.93,18.01c5.17-0.33,17.19,8.11,19.6,8.32
			c2.39,0.22,6.01-5.23,12.85-1.34c2.43,1.37-0.67-2.61,3.75-2.32c4.98,0.36,3.56,1.02,5.42,3.9c0.07-0.37-0.19-3.74-0.22-4.19
			c0.86,1.25,1.84,3.11,0.23,7.58c-0.8,2.26,3.37-3.82,2.55-6.84c-0.95-3.67-0.49-5.43-3.74-6.89c-3.01-1.35-3.36-6.94-4.86-7.83
			C461.15,237.5,464.04,243.83,466.33,244.51z"/>
		<path class="st11" d="M464.42,233.82c-3.59-1.4-2.1-3.83-5.31-3.32c-2.59,0.4-0.6-7.65-4.37-7.99c-8.62-0.75-3.99-3.38-9.08-7.31
			c-4.04-3.14-17.4-9.34-28.12-5.01c0,0-2.16-0.11-1.64,0.45c10.39-2.78,25.01,3.09,28.81,6.05c5.09,3.94,0.48,6.57,9.09,7.33
			c3.77,0.32,1.78,8.38,4.36,7.98c3.22-0.5,1.73,1.91,5.33,3.32c3.58,1.41-0.61,5.01,2.77,5.36c1.73,0.18,2.67,0.77,3.93,3.15
			c1.67,3.21,0,6.88,0.09,6.79c2.97-2.91,2.37-10.31-1.05-10.67C465.85,239.59,468.02,235.22,464.42,233.82z"/>
		<path class="st11" d="M457.43,247.12c-5.24-4.27-7.51-0.05-9.49-0.68c-1.97-0.62-7.16-5.73-10.51-3.93
			c-2.4,1.3-5.55-7.37-8.38-10.63c-0.49,0.15-0.78,0.26-0.78,0.26c3.97,5.05,7.28,16,10.37,14.06c3.09-1.93,7.71,2.91,9.44,3.4
			c1.74,0.5,4.22-4.43,8.65-0.57c1.56,1.36,3.12,6.11,6.06,4.69c2.08-1.03,3.43,4.58,4.37,6.99c0.56-0.97-1.35-8.27-3.92-8.43
			C463.13,252.3,459.29,248.62,457.43,247.12z"/>
		<path class="st11" d="M464.49,245.23c-2.25-0.74,2.56-4.75-5.44-4.91c-5.36-0.11-4.56-2.96-6.75-4.67
			c-2.18-1.73-4.21-6.09-7.76-6.92c-3.53-0.83-5.91,1.6-9.11-0.82c-3.22-2.41-6.03-4.65-6.58-7.39c-0.27-1.3-1.56-11.39-23.09-2.11
			c-0.71-0.13-0.8,0.28-1.45,0.2c0,0,13.19-4.93,21.22,1.1c2.24,1.68,7.32,10.06,10.65,12.33c3.31,2.28,5.59-0.25,9.15,0.41
			c3.57,0.67,5.79,4.95,8.06,6.56c2.26,1.61,1.52,4.95,6.81,4.09c5.28-0.86,1.09,1.8,3.39,2.44c2.97,0.82,5.83,5.24,4.22,8.3
			c-0.09-0.91,1.9-3.09-0.01-6.32C466.53,246.26,466.85,246,464.49,245.23z"/>
		<path class="st11" d="M400.57,222.59c2.34-5.97,14.63-12.86,23.75-10.91c9.12,1.96,8.38,2.42,11.19,5.4
			c2.81,2.98,3.1,1.3,5.47,3.06c2.36,1.76,3.04,3.47,4.47,4.24c1.42,0.76,6.01,0.9,7.39,3.11c1.38,2.21-0.59,3.61,2.02,5.37
			c2.6,1.77,1.72-0.91,4.29,2.06c2.57,2.98,2.76,4.67,5.12,6.43c2.37,1.76,1.2,2.95,1.86,4.04c0.65,1.11-0.79,0.82-2.41-1.64
			c-1.62-2.47-2.71-6.36-5.57-7.65c-2.86-1.29-4.06-1.57-5.01-2.32c-0.94-0.75,2.73-2.58-2.02-5.13c-4.76-2.56-2.91,0.4-7.18-2.63
			c-4.26-3.02-2.61-1.76-5.69-3.79c-3.08-2.02-1.19-0.76-5.19-4.25c-4-3.5-1.37-2.94-7.36-4.09c-6.01-1.14-9.16-1.11-15.01,0.9
			C404.85,216.8,400.57,222.59,400.57,222.59z"/>
	</g>
	<g>
		<path class="st4" d="M268.28,263.83c-40.23,11.82-96.41-5.44-106.11-4.98c-22.36,7.23-65.36,1.33-74.96-0.11
			c-8.98-1.35-14.87,0.09-22.04,1.15c-3.93,0.59-8.54-13.21,1.01-14.63c9.55-1.42,13.92,3.31,20.47,1.35
			c6.55-1.94,67.49-9.03,74.33-9.07c6.82-0.04,77.27-7.31,88.49-4.09C260.67,236.68,268.28,263.83,268.28,263.83z"/>
		<path class="st0" d="M74.67,248.14c3.53-0.25,10.1-0.5,13.64-1.01c3.53-0.51,42.94-7.83,50.51-7.58c7.58,0.25,2.02,2.78,2.02,2.78
			s-48.24,5.81-51.78,6.82C85.53,250.16,74.67,248.14,74.67,248.14z"/>
		<g>
			<g>
				<path class="st4" d="M261.57,204.19c-41.29-7.36-90.44,17.58-100.12,18.19c-23.02-4.73-65.11,5.82-74.49,8.3
					c-8.78,2.33-14.76,3.09-22.01,2.81c-3.98-0.15-7.09,12.52,2.57,12.89c9.65,0.36,13.47-4.81,20.19-3.59
					c6.72,1.22,68.08,1.61,74.86,0.89c6.8-0.7,77.62-1.17,88.41-5.59C261.78,233.65,261.57,204.19,261.57,204.19z"/>
				<path class="st4" d="M79.96,235.2c0.48-0.48,0.82-1.03,0.86-1.51c0.09-0.99-1.34-0.26-1.92-0.05c-0.03-0.05-0.07-0.09-0.09-0.15
					c0.6-0.36,2.78-0.57,1.91-1.78c-0.29-0.42-0.97-0.32-1.54-0.15c0.57-0.27,1.22-0.68,1.33-1.29c0.2-1.11-0.21-0.7-1-0.85
					l-0.73,0.01c0.05-0.06,0.08-0.13,0.15-0.2c2.3-2.18-0.24-3.82-2.34-3.54c-3.07,0.42-1.59,1.67-5.14,1.67
					c-1.29,0-3.16,3.96-4.53,4.81c-2.41,1.47-5.26,3.39-5.7,5.81c-0.7,3.79,22.18,0.92,22.18,0.92
					C81.98,237.54,80.84,236.32,79.96,235.2z"/>
			</g>
			<g>
				<path class="st0" d="M162.45,222.38c-23.01-4.73-65.11,5.82-74.5,8.3c-8.78,2.33-13.62,3.34-20.86,3.06
					c-1.26-0.05-4.48,0.96-5.18,2.9c4.89-0.05,12.25-0.38,20.58-2.15c8.08-1.71,58.34-11.62,79.56-7.57
					c19.72-3.07,68.92-18.64,101.8-12.77c1.18-6-4.57-8.71-4.57-8.71C218,198.09,172.14,221.78,162.45,222.38z"/>
			</g>
		</g>
		<path class="st12" d="M193.62,211.26c7.09-4.72,38.8-13.94,59.36-10.1c21.21,3.96,18.69,6.32,18.69,6.32l0.51,58.34
			c0,0-22.39,5.05-41.25,3.7c-18.86-1.35-33.76-3.2-33.76-3.2s-3.96-17.68,0.25-26.02c8.75-0.68,10.61-1.77,10.61-1.77l-11.36,1.26
			C196.66,239.8,191.61,212.61,193.62,211.26z"/>
	</g>
	<path class="st13" d="M378.25,215.14c-6.06,2.69-22.99,2.18-39.91-10.95c-4.29-3.32-38.87,8.12-44.2,6.06
		c-5.22-2.02-10.86-0.5-10.86-0.5s-4.55,39.15,0.17,54.39c1.56,5.02,14.14-2.36,25.59-0.34c11.45,2.02,28.37,2.27,31.07,2.27
		c2.69,0,18.94-14.4,37.63-9.85c1.01-2.52,2.27-4.8,2.27-4.8s-43.1,2.19-42.43-16.67c0.68-18.85,36.45-16.33,41.17-13.64
		C378.51,217.41,378.25,215.14,378.25,215.14z"/>
	<path class="st0" d="M304.97,123.05c-1.84,4.25-2.08,44.86-2.08,44.86s14.67,33.65,17.26,37.66c2.28,3.53-7.59,6.51-7.59,6.51
		s-22.6-22.26-26.4-35.03c-0.28-0.94-2.04-0.62-2.77-6.04c-2.41-17.94-4.16-45.81,1.05-50.35
		C290.37,115.49,304.97,123.05,304.97,123.05z"/>
	<g>
		<g>
			<path class="st4" d="M254.76,246.09c1.8-0.61,8.99-2.59,9.9-3.45c0.93-0.86,11.41-13.83,9.57-15.76
				c-1.83-1.94-2.79-0.65-5.48-1.43c-1.8,1.32-6.13,2.23-7.84,4.12c-2.9,3.17-3.88,5.76-5.01,6.35c-1,0.52-0.74,1.78,1.18,0.83
				c1.09-0.52,3.75-2.87,6.7-3.99c-1.29,2.19-4.3,7.73-4.3,7.73s-5.47,2.93-6.36,3.34c-0.9,0.41-6.41,1.03-6.57,2.24
				C246.4,247.31,254.76,246.09,254.76,246.09z"/>
			<path class="st4" d="M256.56,243.67c-2.53,0.01-9.11,1.76-7.96,0.14c1.12-1.61,9.44-2.53,10.11-3.21
				C259.41,239.9,256.56,243.67,256.56,243.67z"/>
		</g>
		<path class="st4" d="M261.76,237.65c-2.77,0.88-6.88,1.71-7.41,2.54c-0.53,0.83,5.13-0.39,6.1-0.81c0,0-8.03,1.22-9,2.33
			c-0.97,1.1,0.09,0.9,1.45,0.6c1.36-0.3,6.61-1.3,7.89-1.84C262.07,239.93,261.76,237.65,261.76,237.65z"/>
	</g>
	<path class="st4" d="M367.51,195.26c-8.87-5.01-54.55-12.21-61.49-13.54c-6.95-1.34-6.82,1.52-6.82,1.52s-15.57,11.2-29.22,39.48
		c-0.8,1.66-3.04,6.71-3.53,7.07c-4.93,3.67,1.24,5.81,5.22,2.7c17.68-13.81,29.33-33.03,37.86-31.62
		c9.71,1.61,37.05,8.13,48.01,3.32C364.59,201.1,367.51,195.26,367.51,195.26z"/>
	<g>
		<g>
			<path class="st0" d="M318.99,204.92c2.62-1.3,5.68,0.08,7.89,0.52c2.59,0.52,3.37,0.26,3.88,0.64c0.87,0.66,0,1.82-2.98,1.82
				c-2.41,0-3.1,1.16-3.1,1.16s1.55,2.62,3.1,3.49c1.53,0.85,3.07,0.83,4.27,0.91c1.18,0.08,4.48-0.68,4.53,0.26
				c0.07,1.29-2.55,2.04-4.66,2.07c-2.12,0.02-5.17-0.84-5.17-0.84s3.72,2.13,4.79,2.13c1.04-0.01,6.16,0.87,5.89,2
				c-0.42,1.64-5.14,0.25-6.71,0.26c-1.59,0.02-5.53-1.31-6.06-1.29c-0.53,0.01,4.38,1.16,6.15,1.48c2.92,0.52,5.1-0.3,5.12,1.17
				c0.01,0.89-4.77,1.59-6.96,1.2c-2.22-0.38-4.94-1.33-4.94-1.33s7.45,0.4,8.16,1.43c0.72,1.01-5.01,1.16-7.25,0.71
				c-2.79-0.54-5.95-0.26-6.99-1.36c-0.82-0.86-5.82-6.61-7.29-10.31C308.02,204.57,318.99,204.92,318.99,204.92z"/>
		</g>
	</g>
	<path class="st0" d="M375.8,190.17c-3.22,0.66-7.63-1.03-10.11,0.78c-3.51,2.58-9.07,3.39-8.26,4.15c1.75,1.56,3.31,0.25,4.34,0.08
		c1.24-0.22,2.26-0.54,3.09-0.87c-0.75,0.44-1.73,1.03-3.05,2.11c-5.57,4.5-7.67,10.05-6.12,10.04l6.05-6.81l0.86,0.16
		c0,0-7.05,6.51-6.69,7.71c0.36,1.26,11.07-6.7,11.07-6.7s-5.71,4.42-7.92,6.61c-1.36,1.34-0.73,2.21,0.79,1.9
		c2.41-0.5,8.64-6.71,9.34-5.54c-0.4,0.3-4.03,3.63-4.58,4.11c-1.84,1.61-2.96,1.95-2.32,2.59c0.55,0.57,8.28-3.62,10.54-5.42
		c1.25-1.64,7.69,1.08,11.51-6.61C388.62,187.95,383.59,183.77,375.8,190.17z"/>
	<path class="st3" d="M305.32,84.23c-12.42-1.29-20.31,7.92-22.26,13.46c-6.39,18.11-7.93,38.51-8.8,45.72
		c6.52-3.18,29.56,0.9,31.4,1.73c4.14-22.09,6.71-34.19,4.49-42.79C307.92,93.75,305.32,84.23,305.32,84.23z"/>
	<g>
		<g>
			<g>
				<path class="st4" d="M378.1,82.48c-7.25,11.66-13.88,22.14-21.02,19.45c-2.13-0.79-6.36-3.28-8.81-6.32
					c-5.1-6.32-7.78-17.01-5.37-25.95c3.53-13.26,14.83-20.94,26.87-15.66C382.91,59.79,384.24,72.6,378.1,82.48z"/>
				<path class="st12" d="M378.16,62.51c-1.8,2.85-14-2.49-18.38-2.25c-4.36,0.29-9.81,6.61-10.59,7.62
					c-0.76,1.03-0.8-3.16-3.89-1.63c-3.09,1.56-2.91,8.7-1.64,9.8c1.43,1.23-6.34,12.14-6.34,12.14s-3.4-13.49,2.65-28.16
					c4.28-10.41,13.18-15.95,22.24-16.02c4.64-0.05,11.95,0.29,16.96,5.83C386.91,58.38,378.16,62.51,378.16,62.51z"/>
			</g>
			<path class="st0" d="M386.77,67.49c0,0-5.85,12.15-8.46,17.4c-2.62,5.21-12.42,17.62-16.34,17.59c-3.93-0.02-4.02-0.38-4.02-0.38
				s3.74-1.89,12.77-21.31c1-2.14,2.5-3.15,3.24-4.93c5.23-12.66,3.83-17.77,3.83-17.77L386.77,67.49z"/>
			<path class="st4" d="M372.4,76.95c-1.55,9.62-1.55,11.53-2.5,12.49c-0.98,0.99-2.29-0.78-5.67-0.22
				C363.11,89.41,372.4,76.95,372.4,76.95z"/>
			<path class="st14" d="M376.19,63.21c7.19,2.22,7.1,11.16,5.16,15.55c-1.32,2.95-2.07,4.49-2.07,4.49s3.46-1.59,4.44-2.9
				c0.99-1.31,4.8-6.54,5.11-11.84c0.27-4.24-0.3-16.85-9.68-18.68C377.19,49.45,376.19,63.21,376.19,63.21z"/>
		</g>
		<path class="st14" d="M360.12,97.68c2.12,1.26,8.6,0.25,10.12-1.6c1.51-1.84-4.53,8.43-5.87,9.91c-1.39,1.46-10.29,6.93-10.6,5.89
			C353.44,110.83,360.12,97.68,360.12,97.68z"/>
		<path class="st12" d="M341.95,77.7c-1.46,3.87-3.31,11.67-3.8,13.95c-0.52,2.26,6.46,13.05,8.26,15.88
			c1.8,2.84,7.36,4.35,7.36,4.35l7.6-13.61c0,0-3.4-2.97-4.64-4.78c-1.25-1.81-7.91-7.31-9-12.2c-1.08-4.89,1.94-10.64,1.85-12.23
			c-0.14-1.64-4.04,1.88-3.84,3.65C345.98,74.45,341.95,77.7,341.95,77.7z"/>
		<path class="st14" d="M366.39,89.75c2.8,1.61,4.28,3.3,3.9,5.85c-0.42,2.55-1.26,4.03-1.26,4.03s0.63-2.08-1.33-3.73
			c-2-1.64-2.91-3.35-2.91-3.35L366.39,89.75z"/>
		<path class="st12" d="M366.39,89.75c-1.6-0.95-5.13-1.63-7.19-0.89c-2.07,0.76-4.85,5.43-4.85,5.43s3.74-2.88,6.03-2.18
			c2.27,0.72,4.8,0.86,4.8,0.86L366.39,89.75z"/>
	</g>
</g>
</svg>
