<?xml version="1.0" encoding="utf-8"?>
<!-- Generator: Adobe Illustrator 24.0.1, SVG Export Plug-In . SVG Version: 6.00 Build 0)  -->
<svg version="1.1" id="Layer_1" xmlns="http://www.w3.org/2000/svg" xmlns:xlink="http://www.w3.org/1999/xlink" x="0px" y="0px"
	 viewBox="0 0 500 500" style="enable-background:new 0 0 500 500;" xml:space="preserve">
<style type="text/css">
	.st0{fill:#F1AF9F;}
	.st1{fill:#F5A33D;}
	.st2{fill:#C77E3E;}
	.st3{fill:#FBF4C3;}
	.st4{fill:#EC948A;}
	.st5{fill:#D6EFFB;}
	.st6{fill:#4EBFED;}
	.st7{fill:#EDB3CF;}
	.st8{fill:#F8C8DD;}
	.st9{fill:#D67FB3;}
	.st10{fill:#DC6F26;}
	.st11{fill:#231F20;}
	.st12{fill:#E9ADC9;}
	.st13{fill:#5681B2;}
	.st14{fill:#D6DF27;}
	.st15{fill:#B2A1C2;}
	.st16{fill:#996133;}
	.st17{fill:#F5BF16;}
	.st18{fill:#9EB9E0;}
	.st19{fill:#5886B9;}
	.st20{fill:#E8BBD2;}
	.st21{fill:#8CC640;}
	.st22{fill:#34A6DE;}
	.st23{fill:#A58ABC;}
	.st24{fill:#F8C5DB;}
</style>
<g>
	<g>
		<g>
			<g>
				<path class="st0" d="M258.83,333.83v-28.51l-84.81-61.13l-71.4,83l19.18,41.29l26.94,17.96v23.98v29.06h89.49
					c-2.33-33.52,6.21-47.5,6.21-47.5L258.83,333.83z"/>
				<path class="st1" d="M174.83,376.77c10.27-6.54,22.41-5.6,33.62-3.74c17.74,1.87,18.68,0,27.08-19.61
					c4.67-8.4,14.01-24.28,0-29.88c-8.4-3.73-21.48,7.47-28.01,11.2c-9.34,6.54-14.01,10.27-27.08,11.21
					c-24.28,1.87-31.75,3.73-50.42,21.48l18.68,28.01C160.82,394.51,165.49,383.31,174.83,376.77z"/>
				<path class="st2" d="M203.47,342.91c30.41-37.16-3.56-71.45-3.56-71.45l-58.92-24.23l-24.26,74.02l-8.55,19.96l8.55,18.83
					c0,0,1.16-9.71,30.95-32.08c29.78-22.37,52.64,5.87,52.64,5.87l-2.98,9.08H203.47z"/>
				<path class="st3" d="M232.59,352.18c-8.27,19.29-8.29,19.33-23.72,17.7c-12.02-2-24.66-2.85-35.87,4.28
					c-3.49,2.44-6.29,5.4-9,8.26c-4.75,5.01-8.85,9.34-15.57,9.85l0.49,6.35c9.17-0.71,14.52-6.36,19.7-11.82
					c2.49-2.63,5.06-5.34,7.91-7.34c9.31-5.93,20.59-5.08,31.38-3.28l0.19,0.03c19.6,2.06,21.64-1.22,30.28-21.37l0.32-0.58
					c3.79-6.81,9.53-17.1,6.59-25.38c-1.33-3.75-4.22-6.53-8.48-8.24c-8.26-3.67-18.66,3.29-26.26,8.38
					c-1.81,1.21-3.37,2.25-4.63,2.97l-1.67,1.16c-8.35,5.87-12.54,8.82-24.07,9.64c-25.45,1.96-33.33,4.25-52.37,22.34l4.39,4.62
					c17.79-16.9,24.11-18.73,48.46-20.61c13.28-0.95,18.84-4.86,27.26-10.78l1.3-0.91c1.42-0.82,3.03-1.9,4.88-3.14
					c6-4.02,15.08-10.09,20.24-7.8c2.63,1.06,4.26,2.53,4.96,4.5c1.97,5.56-3.11,14.7-6.15,20.15L232.59,352.18z"/>
				<path class="st4" d="M228.52,307.42c0.1-7.9-6.22-14.39-14.13-14.49c-7.9-0.1-14.39,6.23-14.49,14.13
					c-0.1,7.9,6.07,26.67,13.98,26.77C221.78,333.93,228.43,315.32,228.52,307.42z"/>
				<path class="st3" d="M107.97,347.8l0.42,0.81c23.2-11.91,13.93-31.37,13.86-31.48c-5.06-18.66,6.8-33.09,6.85-33.17
					c20.22-16.01,98.52,6.23,99.31,6.46l0.25-0.87c-3.24-0.93-79.54-22.6-100.19-6.23c-0.12,0.15-12.29,14.93-7.07,34.14
					C121.77,318.21,130.35,336.31,107.97,347.8z"/>
				<polygon class="st4" points="73.17,263.02 54.94,281.6 87.38,333.83 101.59,303 				"/>
				<path class="st5" d="M260.89,261.72l-32.91-13.73c-7.36,8.13-6.3,40.13-6.3,40.13l38.19,11.38L260.89,261.72z"/>
				<path class="st6" d="M115.34,218.52c-0.14-0.28-0.27-0.54-0.39-0.79C115.08,217.99,115.21,218.26,115.34,218.52z"/>
				<path class="st6" d="M116.42,220.71c-0.26-0.53-0.66-1.34-1.08-2.19C115.65,219.15,116.01,219.88,116.42,220.71z"/>
				<path class="st6" d="M116.67,221.22c-0.09-0.18-0.17-0.34-0.25-0.51C116.53,220.95,116.62,221.12,116.67,221.22z"/>
				<path class="st6" d="M114.95,217.73c-0.26-0.53-0.51-1.03-0.72-1.47C114.41,216.65,114.65,217.14,114.95,217.73z"/>
				<path class="st6" d="M116.72,221.32c0,0-0.02-0.04-0.05-0.1C116.69,221.26,116.7,221.29,116.72,221.32z"/>
				<path class="st6" d="M114.01,215.83c-0.09-0.19-0.18-0.35-0.24-0.49C113.83,215.46,113.91,215.63,114.01,215.83z"/>
				<path class="st6" d="M113.62,215.03C113.59,214.99,113.6,214.99,113.62,215.03L113.62,215.03z"/>
				<path class="st6" d="M97.19,294.94l-14.81,25.04l25.8,28.22c23.07-11.84,13.63-30.96,13.63-30.96
					c-5.18-19.12,7.01-33.64,7.01-33.64c18.43-20.58,99.71,6.38,99.71,6.38l20.66-26.96l-27.57-15.04l-41.95-17.24l-24.22,3.64
					l-38.73-13.07c7.03,14.24,3.72,62.28,3.72,62.28C115.71,308.23,97.19,294.94,97.19,294.94z"/>
				<path class="st6" d="M113.66,215.13c-0.02-0.04-0.04-0.07-0.05-0.09C113.63,215.05,113.64,215.08,113.66,215.13z"/>
				<path class="st6" d="M113.77,215.34c-0.04-0.09-0.08-0.16-0.1-0.21C113.69,215.18,113.72,215.25,113.77,215.34z"/>
				<path class="st6" d="M114.22,216.26c-0.08-0.16-0.15-0.31-0.22-0.44C114.07,215.96,114.15,216.11,114.22,216.26z"/>
				<path class="st7" d="M78.28,268.57c0,0-30.75-38.42-46.68-12.14l23.05,36.68C73.61,284.38,78.28,268.57,78.28,268.57z"/>
				<path class="st8" d="M56.64,260.52c0-3.34-2.7-6.04-6.04-6.04c-3.34,0-6.04,2.71-6.04,6.04c0,3.34,2.7,6.04,6.04,6.04
					C53.94,266.56,56.64,263.86,56.64,260.52z"/>
				<path class="st1" d="M146.06,216.81l-8.15-41.3l-28.94,8.35l12.83,62.06c8.17-11.53,34.32-1.82,34.32-1.82
					c20.64-16.39,35.21,3.88,35.21,3.88c22.46-5.22,32.17,8.26,32.17,8.26l35.42,11.53l2.22-62.52l-24.94-11.52l-6.63,46.12l-7.28,0
					l2.96-55.99l-24.94-7.74l-2.9,47.35l-4.85,6.67l-6.07-9.1l-4.67-55.23l-28.22,6.15l3.52,52.36l-6.91,3.98L146.06,216.81z"/>
				<path class="st9" d="M140.98,187.65l-11.23-53.82l-27.13,11.96l8,47.94C120.95,182.81,140.98,187.65,140.98,187.65z"/>
				<path class="st9" d="M182.83,179.67l-4.33-62.39h-28.31l3.87,62.39C167.84,174.72,182.83,179.67,182.83,179.67z"/>
				<path class="st9" d="M224.9,193.73l3.08-55.08l-27.67-3.07l-2.98,50.84C217.88,185.19,224.9,193.73,224.9,193.73z"/>
				<path class="st9" d="M260.84,216.81l3.96-47.25l-12.87-3.76c-20.12,4.31-18.31,45.84-18.31,45.84
					C243.13,207.16,260.84,216.81,260.84,216.81z"/>
				<path class="st7" d="M256.83,155.56c-17.2-3.26-17.88,21.47-17.88,21.47c15.45-1.83,25.85,6.83,25.85,6.83
					C266.04,161.1,256.83,155.56,256.83,155.56z"/>
				<path class="st7" d="M226.24,155.27c7.75-41.34-13.06-42.88-13.06-42.88c-14.87,1.82-12.78,38.58-12.78,38.58
					C213.73,146.31,226.24,155.27,226.24,155.27z"/>
				<path class="st7" d="M162.04,131.96c12.38-1.5,17.54,3.69,17.54,3.69c1.61-47.29-19.82-41.56-19.82-41.56
					c-13.3,4.47-9.43,46.59-9.43,46.59C149.53,132.11,162.04,131.96,162.04,131.96z"/>
				<path class="st7" d="M131.84,148.2c-1.97-37.03-19.74-32.09-19.74-32.09c-18.53,8.28-6.93,39.15-6.93,39.15
					C112.95,144.42,131.84,148.2,131.84,148.2z"/>
				<path class="st10" d="M154.57,250.28l3.05,0.77l2.47-1.96c4.83-3.83,9.51-5.48,13.93-4.9c7.22,0.96,12.11,7.48,12.13,7.51
					l2.48,3.45l4.14-0.96c17.32-4.03,24.95,5.02,25.58,5.81l1.1,1.63l37.49,12.21l3.95-12.12l-33.75-10.99
					c-3.76-3.95-14.51-12.74-33.45-9.7c-3.34-3.37-9.5-8.29-17.82-9.45c-7.18-1-14.3,0.91-21.23,5.69
					c-6.87-1.29-23.86-3.53-36.6,2.86l5.72,11.39C133.48,246.64,149.31,248.97,154.57,250.28z"/>
				<path class="st3" d="M107.84,347.97l3.33,6.48c24-12.32,16.73-32.29,15.42-35.4c-4.32-16.43,5.73-29.33,6.32-30.07
					c13.9-15.32,73.85,0.18,95.81,7.46l30.13,8.89l2.06-6.99l-29.96-8.84c-1.28-0.42-21.38-6.96-43.37-11.01
					c-31.36-5.78-51.6-3.86-60.14,5.68l-0.08,0.09c-0.55,0.65-13.35,16.22-7.73,36.94l0.09,0.34l0.16,0.32
					C120.19,322.51,127.49,337.88,107.84,347.97z"/>
				<g>
					<polygon class="st10" points="33.45,263.02 33.45,263.02 33.45,263.02 					"/>
					<path class="st10" d="M55.23,273.97c0,0-8.14-8.13-16.02-2.78l19.95,28.3l17.02,22.82l21.25,27.78l35.64,29.37
						c17,16.39,13.39,49.77,13.39,49.77c8.54,1.82,12.71-4.25,12.71-4.25c14.57-20.03-4.25-38.54-4.25-38.54l-38.24-36.12
						c-20.64-17.6-30.96-37.03-30.96-37.03c-3.64-7.89-13.59-19.98-13.59-19.98v0L55.23,273.97z"/>
				</g>
				<path class="st11" d="M109.11,297.22c-0.46,0-11.54-0.28-24.15-24.51c-0.05-0.11-0.12-0.21-0.18-0.3
					c-0.78-1.11-19.28-27.29-40.04-27.29c-4.26,0-8.34,1.11-12.24,3.37c-0.32,0.2-3.1,2.11-3.57,6.14
					c-0.48,4.17,1.73,8.85,6.57,13.91c1.21,1.72,11.11,15.85,15.63,22.62c0.05,0.08,0.1,0.15,0.16,0.22
					c0.19,0.23,19.11,23.31,22.83,28.8c1.15,2.18,13.51,25.04,27.99,35.36l33.8,28.36c0.1,0.09,9.57,9.14,10.1,26.53v29.06
					c0,1.51,1.22,2.73,2.73,2.73h89.49c1.51,0,2.73-1.22,2.73-2.73l0-15.66c0-0.17,0.34-16.89,4.37-26.38
					c0.8-2.08,19.54-51.02,17.18-73.35l0.21-56.28c0-0.35,0.42-34.68,2.8-62.75c0.97-4.49,7.54-36.73-1.91-48.48
					c-2.27-2.82-5.36-4.35-8.96-4.43c-0.3-0.06-0.7-0.11-1.18-0.11c-4.83,0-13.59,4.5-17.93,34.62l-7.45,51.87
					c-0.23,0.2-0.48,0.39-0.7,0.53c-0.16-0.74-0.32-2.25-0.07-5.18l3.03-86.71c0.07-1,1.59-24.49-6.97-33.66
					c-2.38-2.55-5.3-3.85-8.66-3.86c-0.56-0.17-1.4-0.35-2.42-0.35c-1.71,0-4.24,0.51-6.61,2.97c-4.68,4.83-6.79,15.46-6.29,31.61
					l-3.64,40.05c-0.28,8.14-1.06,34.19-0.02,39.78c-0.02,0.3-0.09,0.84-0.28,1.35c-0.26,0.71-0.45,0.71-0.62,0.71
					c-0.09,0-0.22-0.01-0.41-0.05c-0.51-0.25-4.43-2.54-5.36-13.37l-6.67-90.29c0.06-1.97,0.36-18.63-7.16-26.46
					c-2.86-2.98-6.39-4.38-10.66-4.15c-1.58-0.18-7.45-0.45-12.17,5.03c-5.56,6.45-7.1,18.28-4.6,35l3.2,34l4.7,48.04
					c0.51,3.92,0.51,10.6-1.13,12.46c-0.2,0.23-0.33,0.24-0.62,0.24c-0.29-0.03-0.57-0.01-0.84,0.06
					c-1.01-1.31-3.77-6.78-5.95-28.56c-0.01-0.12-0.03-0.23-0.06-0.35l-11.48-49.52c-0.16-3.49-2.09-34.61-19.63-34.61
					c-0.45,0-0.91,0.02-1.38,0.07c-1.16-0.04-6.29,0.09-10.13,4.77c-4.11,5.02-5.05,13.3-2.82,24.45l9.11,64.34
					c0.01,0.1,0.03,0.2,0.06,0.29c4.79,18.78,14.9,70.86,4.33,86.14C113.54,295.66,111.5,296.95,109.11,297.22z M119.68,296.39
					c13.95-20.17-2.36-85.97-3.49-90.45l-9.11-64.34c-2.4-11.99-0.42-17.53,1.66-20.07c2.11-2.57,4.89-2.77,5.77-2.77
					c0.17,0.01,0.33,0.01,0.5-0.01c0.34-0.04,0.68-0.06,1.01-0.06c10.74,0,13.88,21.37,14.18,29.61c0.01,0.17,0.03,0.35,0.07,0.52
					l11.49,49.6c2.97,29.55,7.3,33.54,11.15,33.54c0.58,0,1.09-0.12,1.5-0.29c1.67-0.08,3.15-0.8,4.28-2.1
					c3.84-4.37,2.7-14.74,2.45-16.69l-4.69-47.94l-3.21-34.14c-2.83-18.96,0.24-27.2,3.32-30.77c2.4-2.79,5.24-3.2,6.71-3.2
					c0.41,0,0.69,0.03,0.74,0.04c0.23,0.04,0.46,0.06,0.69,0.04c2.67-0.19,4.82,0.6,6.6,2.46c5.16,5.37,5.82,18.15,5.64,22.63
					c0,0.1,0,0.21,0,0.31l6.68,90.47c1.33,15.52,8.46,17.95,9.34,18.2c3.5,0.87,6.41-0.71,7.63-4.07c0.6-1.66,0.62-3.26,0.62-3.44
					c0-0.25-0.07-0.6-0.13-0.84c-0.65-2.38-0.45-21.46,0.12-38.37l3.64-40.06c0.01-0.11,0.01-0.22,0.01-0.34
					c-0.62-19.28,2.71-25.7,4.74-27.8c0.84-0.87,1.74-1.3,2.69-1.3c0.54,0,0.86,0.11,0.85,0.12c0.39,0.18,0.82,0.26,1.23,0.24
					l0.3-0.01c1.84,0,3.38,0.7,4.71,2.12c5.76,6.17,5.94,23.43,5.51,29.65l-3.02,86.66c-0.44,5.03,0.08,8.05,1.68,9.8
					c0.87,0.94,2.04,1.46,3.32,1.46c2.73,0,5.13-2.37,5.8-3.1c0.38-0.41,0.62-0.92,0.7-1.46l7.59-52.81
					c4.26-29.59,12.19-29.93,12.52-29.97c0.37,0.18,0.45,0.14,0.86,0.14c2.12,0,3.72,0.76,5.04,2.4c6.74,8.38,2.86,34.64,0.8,44.06
					c-0.03,0.12-0.04,0.23-0.05,0.35c-2.41,28.3-2.83,62.98-2.84,63.35l-0.21,56.45c0,0.1,0.01,0.21,0.02,0.31
					c2.32,20.94-16.64,70.45-16.79,70.86c-4.41,10.38-4.76,27.61-4.77,28.38v12.98h-84.03l0-26.41
					c-0.6-19.73-11.37-30.01-11.94-30.54l-33.99-28.53c-0.06-0.05-0.12-0.09-0.18-0.14c-13.85-9.81-26.35-33.4-26.47-33.64
					c-0.04-0.08-0.09-0.17-0.15-0.25c-3.59-5.38-21.55-27.31-23.14-29.25c-4.86-7.28-15.64-22.63-15.75-22.79
					c-0.08-0.12-0.17-0.23-0.27-0.33c-3.59-3.71-5.45-7.1-5.24-9.53c0.12-1.38,0.92-2.11,1.12-2.28c2.91-1.66,6.02-2.5,9.27-2.5
					c17.22,0,34.04,22.85,35.46,24.82c13.56,25.97,26.46,27.28,28.91,27.28c0.1,0,0.33-0.01,0.43-0.02
					C113.71,302.2,117.12,300.09,119.68,296.39z"/>
				<g>
					<path class="st4" d="M164.93,373.02c7.25-1.14,11.22-4.91,13.78-10.45c0,0,7.28-24.65-14.13-34.52c0,0-28.64-5.51-33.48,11.44
						c-3.09,10.81,11.94,17.83,19.9,24.86C157.54,369.61,151.79,374.8,164.93,373.02z"/>
				</g>
			</g>
		</g>
		<g>
			<g>
				<path class="st12" d="M394.51,108.6c-0.59,2.27-0.97,5.06-1.06,8.45C393.87,114.5,394.26,111.61,394.51,108.6z"/>
				<path class="st12" d="M442.58,146.55c-1.05,1.87-1.89,4.32-2.37,7.57C441.02,151.9,441.86,149.31,442.58,146.55z"/>
				<path class="st12" d="M342.27,82.57c0,0-31.85-2.68-28.28,34.51c0,0,0.71,21.97,7.64,32.44c0,0,8.85,14.75,4.72,35.98
					c0,0-9.44,31.85,3.54,50.73c0,0,20.65,33.03,18.88,71.38c0,0-1.18,38.34-4.13,58.4c0,0-20.65,84.35,40.11,90.37
					c0,0,45.42,5.78,53.09-57.93c0,0,0.59-76.1,11.8-117.39c0,0,14.75-43.06,15.34-64.89c0,0,1.77-17.7-2.36-27.14
					c0,0-4.13-15.87-0.59-23.6c0,0,6.49-21.83-7.67-24.19c0,0-7.54-2.25-11.77,5.29c-0.71,2.76-1.56,5.35-2.37,7.57
					c-0.01,0.04-0.01,0.08-0.02,0.12c0,0,0.59,21.24-5.31,20.65c0,0-5.31-4.72,2.36-13.57c0,0,1.41-2.9,2.97-7.2
					c0.48-3.25,1.32-5.7,2.37-7.57c2.95-11.38,3.64-25.62-10.05-28.3c0,0-13.27-5.16-15.34,20.65c0,0,3.39,21.85-2.8,18.81
					c0,0-1.52-6.2,0.88-10.55c0,0,10.17-46.9-9.73-48.67c0,0-8.06-1.36-11.03,10.11c-0.24,3.01-0.63,5.9-1.06,8.45
					c-0.03,1.25-0.02,2.58,0.03,4c0,0,2.07,21.24,0,21.24c0,0-4.8,1.04-2.08-15.49c0,0,1.1-4.04,2.05-9.75
					c0.08-3.4,0.47-6.18,1.06-8.45c1.07-13.19-0.64-28.7-14.63-28.69c0,0-20.35-0.88-14.6,29.64c0,0,9.29,39.82,3.1,40.26
					c0,0-6.19,1.33-3.1-23.45C365.28,126.37,370.55,84.34,342.27,82.57z"/>
				<path class="st10" d="M419.69,230.4c0,0,39.37-8.92,45.27-14.23c5.9-5.31-2.36-27.14-2.36-27.14
					c-16.81,0.29-51.56-27.04-51.56-27.04c-20.59-17.89-38.75-17.7-38.75-17.7l-5.58,4.68l-15.56-1.62l0.79,32.73l20.35,34.79
					L419.69,230.4z"/>
				<path class="st13" d="M463.31,230.38c-16.11-0.84-48.96-22.77-48.96-22.77l-18.43,18.85l20.57,40.56l36.32,6.36L463.31,230.38z"
					/>
				<path class="st14" d="M355.25,192.8l-16.22,47.2l8.92,48.78l51.96,10.28l33.7-30.85c-20.15-32.02-16.79-65.11-16.79-65.11
					L355.25,192.8z"/>
				<path class="st15" d="M444.78,304.64l12.14-47.27c0,0-10.05,7.81-33.59,0.57l-14.34,92.15l17.49,61.35l11.54-22.68
					C438.02,388.74,442.06,319.35,444.78,304.64z"/>
				<path class="st16" d="M432.28,274.99c-6.41-21.41-28.22-6.78-28.22-6.78c-23.83,9.21-58.78,6.36-58.78,6.36l4.34,45.58
					l29.71,35.83l36.56,31.26c28.5,10.91,15.72-41.24,15.72-41.24c-3.56-9.97,0-35.43,0-35.43
					C435.65,291.36,432.28,274.99,432.28,274.99z"/>
				<path class="st2" d="M342.16,411.06l24.56,0.36l49.76-18.29l4.09-12.94c-17.57-4.06-4.09-75.57-4.09-75.57
					c4.31-17.72-12.42-15.86-12.42-15.86c-33.77,11.25-56.12,0-56.12,0c5.78,25.08-3.4,77.59-3.4,77.59L342.16,411.06z"/>
				<path class="st7" d="M364.83,144.31c0,0,9.18-46.6-12.88-59.04l-23.09-0.37c0,0-17.96,10.75-14.87,32.18l4.23,25.17
					L364.83,144.31z"/>
				<path class="st17" d="M416.48,349.49c0-5.68-4.61-10.28-10.28-10.28c-5.68,0-10.28,4.6-10.28,10.28
					c0,5.68,4.6,10.28,10.28,10.28C411.88,359.77,416.48,355.17,416.48,349.49z"/>
				<path class="st17" d="M404.06,314.92c0-5.68-4.6-10.28-10.28-10.28c-5.68,0-10.28,4.6-10.28,10.28c0,5.68,4.6,10.28,10.28,10.28
					C399.46,325.2,404.06,320.6,404.06,314.92z"/>
				<path class="st17" d="M399.91,288.78c0-5.68-4.6-10.28-10.28-10.28c-5.68,0-10.28,4.6-10.28,10.28c0,5.68,4.6,10.28,10.28,10.28
					C395.3,299.06,399.91,294.46,399.91,288.78z"/>
				<path class="st17" d="M433.61,268.21c0-5.68-4.6-10.28-10.28-10.28c-5.68,0-10.28,4.6-10.28,10.28c0,5.68,4.6,10.28,10.28,10.28
					C429.01,278.49,433.61,273.89,433.61,268.21z"/>
				<path class="st17" d="M414.35,248.03c0-5.68-4.6-10.28-10.28-10.28c-5.68,0-10.28,4.6-10.28,10.28c0,5.68,4.6,10.28,10.28,10.28
					C409.74,258.31,414.35,253.71,414.35,248.03z"/>
				<path class="st17" d="M409.72,225.17c0-5.68-4.6-10.28-10.28-10.28c-5.68,0-10.28,4.6-10.28,10.28c0,5.68,4.6,10.28,10.28,10.28
					C405.12,235.46,409.72,230.85,409.72,225.17z"/>
				<path class="st0" d="M438.15,384.27c0,0-42.15-15.81-96.74,5.97c0,0-7.87,61.81,45.75,66.28
					C387.16,456.51,440.82,458.56,438.15,384.27z"/>
				<path class="st4" d="M408.99,396.98c0-5.38-4.36-9.73-9.73-9.73c-5.38,0-9.73,4.36-9.73,9.73c0,5.38,4.36,9.73,9.73,9.73
					C404.63,406.71,408.99,402.35,408.99,396.98z"/>
				<path class="st4" d="M381.46,422.01c0-5.84-4.74-10.58-10.58-10.58c-5.84,0-10.58,4.74-10.58,10.58
					c0,5.85,4.74,10.58,10.58,10.58C376.72,432.59,381.46,427.86,381.46,422.01z"/>
				<path class="st4" d="M426.48,417.29c0-5.84-4.74-10.58-10.58-10.58c-5.85,0-10.58,4.74-10.58,10.58
					c0,5.85,4.74,10.58,10.58,10.58C421.74,427.87,426.48,423.14,426.48,417.29z"/>
				<path class="st5" d="M348.66,310.58l-5.91,65.76c18.42-8.56,18.4-34.51,18.4-34.51C361.74,320.59,348.66,310.58,348.66,310.58z"
					/>
				<path class="st18" d="M442.65,320.15c0,0-21.44,6.93-21.98,25.8c0,0-2.49,18.2,17.95,25.91L442.65,320.15z"/>
				<path class="st19" d="M456.92,257.36c0,0-15.55,3.64-19.09,20.16c0,0-3.81,20.6,6.95,27.11L456.92,257.36z"/>
				<path class="st1" d="M391.41,198.04c12.42,11.5,26.07,9.43,26.07,9.43c20.79,24.48,45.83,22.91,45.83,22.91l2.03-21.28
					c-19.83-1.33-65.91-35.19-65.91-35.19c-24.78-17.71-37.7-11.91-37.7-11.91s-30.53,37.36-8.41,40.31
					C375.45,205.26,391.41,198.04,391.41,198.04z"/>
				<path class="st20" d="M386.27,113.14c0-3.21-2.6-5.81-5.81-5.81c-3.21,0-5.81,2.6-5.81,5.81c0,3.21,2.6,5.8,5.81,5.8
					C383.67,118.94,386.27,116.34,386.27,113.14z"/>
				<path class="st20" d="M383.91,136.44c0-3.21-2.6-5.81-5.81-5.81c-3.21,0-5.81,2.6-5.81,5.81c0,3.21,2.6,5.81,5.81,5.81
					C381.32,142.24,383.91,139.64,383.91,136.44z"/>
				<path class="st20" d="M411.05,119.98c0-3.21-2.6-5.81-5.81-5.81c-3.21,0-5.81,2.6-5.81,5.81c0,3.21,2.6,5.81,5.81,5.81
					C408.45,125.78,411.05,123.18,411.05,119.98z"/>
				<path class="st20" d="M409.87,144.31c0-3.21-2.6-5.81-5.8-5.81c-3.21,0-5.81,2.6-5.81,5.81c0,3.21,2.6,5.81,5.81,5.81
					C407.27,150.11,409.87,147.51,409.87,144.31z"/>
				<path class="st20" d="M432.28,155.92c0-3.21-2.6-5.81-5.81-5.81c-3.21,0-5.81,2.6-5.81,5.81c0,3.21,2.6,5.81,5.81,5.81
					C429.69,161.73,432.28,159.13,432.28,155.92z"/>
				<path class="st20" d="M455.29,173.91c0-3.21-2.6-5.81-5.8-5.81c-3.21,0-5.81,2.6-5.81,5.81c0,3.21,2.6,5.81,5.81,5.81
					C452.69,179.72,455.29,177.12,455.29,173.91z"/>
				<path class="st20" d="M434.94,132.7c0-3.21-2.6-5.81-5.81-5.81c-3.2,0-5.8,2.6-5.8,5.81c0,3.21,2.6,5.81,5.8,5.81
					C432.34,138.5,434.94,135.9,434.94,132.7z"/>
				<path class="st20" d="M458.61,156.2c0-3.21-2.6-5.81-5.81-5.81c-3.21,0-5.81,2.6-5.81,5.81c0,3.21,2.6,5.81,5.81,5.81
					C456.01,162.01,458.61,159.41,458.61,156.2z"/>
				<path class="st21" d="M415.59,212.03c19.2,21.37,41.21,22.8,46.73,22.8c0.71,0,1.15-0.02,1.27-0.03l-0.54-8.83
					c-0.94,0.05-23.21,1-42.2-21.36l-1.6-1.88l-2.44,0.37c-0.45,0.07-11.81,1.5-22.4-8.31l-2.15-2l-2.68,1.21
					c-0.14,0.06-15.2,6.65-35.67,3.92l-1.17,8.77c18,2.4,32.1-1.56,37.78-3.57C400.55,211.28,410.91,212.14,415.59,212.03z"/>
				<path class="st22" d="M344.54,248.03c0,0,15.27-5.46,21.32-11.8c6.04-6.34,5.01-33.92,5.01-33.92H329l-5.9,12.39l6.19,24.04
					l7.37,8.41L344.54,248.03z"/>
				<path class="st6" d="M369.55,226.46c-15.63,11.27-36.77,14.95-36.77,14.95l9.38,22.28
					C366.83,257.69,369.55,226.46,369.55,226.46z"/>
				<path class="st23" d="M322.8,217.95c23.01-1.33,48.08-14.89,48.08-14.89c-1.02-29-6.05-58.74-6.05-58.74l-46.62-2.06l6.79,15.47
					l2.33,20.02l-3.5,20.33L322.8,217.95z"/>
				<g>
					<path class="st24" d="M351.95,85.27c-16.87-8.8-29.15,3.49-29.15,3.49c10.03,3.54,22.42,5.31,32.44-1.77L351.95,85.27z"/>
				</g>
				<path class="st8" d="M346.18,101.22c0-3.62-2.94-6.56-6.56-6.56c-3.62,0-6.56,2.94-6.56,6.56c0,3.62,2.94,6.56,6.56,6.56
					C343.24,107.78,346.18,104.85,346.18,101.22z"/>
				<path class="st8" d="M346.18,125.11c0-3.62-2.94-6.56-6.56-6.56c-3.62,0-6.56,2.94-6.56,6.56c0,3.62,2.94,6.56,6.56,6.56
					C343.24,131.67,346.18,128.74,346.18,125.11z"/>
				<path class="st9" d="M367.25,151.85l-2.81-15.41c0,0-17.25-8.36-47.36,2.06l5.72,13.35
					C322.8,151.85,342.16,140.84,367.25,151.85z"/>
				<path class="st11" d="M444.07,122.75c-2.33-3.7-5.98-6.07-10.84-7.06c-1.42-0.47-7.78-1.99-12.78,4.14
					c-0.3-7.07-1.63-13.93-4.95-18.44c-2.42-3.29-5.66-5.15-9.63-5.53c-0.18-0.03-0.58-0.07-1.13-0.07c-1.32,0-4.46,0.3-7.42,2.77
					c-0.48-7.37-2.39-12.91-5.72-16.51c-2.93-3.18-6.86-4.79-11.59-4.79c-0.04,0-0.26-0.01-0.3-0.01c-1.35,0-8.31,0.3-13.24,6.25
					c-1.94,2.33-3.29,5.2-4.07,8.59c-0.75-1.26-1.58-2.47-2.52-3.59c-4.34-5.24-10.21-8.13-17.38-8.58c0,0-0.59-0.05-1.61-0.05
					c-4.25,0-14.93,0.88-22.38,9.08c-5.94,6.53-8.35,16.08-7.18,28.21c0.03,0.93,0.82,22.85,8.01,33.73
					c0.08,0.14,8.25,14.05,4.41,33.99c-0.75,2.59-9.32,33.59,3.87,52.76c0.2,0.32,20.18,32.82,18.47,69.89
					c-0.01,0.38-1.21,38.27-4.08,57.97c-0.78,3.26-11.03,47.98,7.87,74.68c7.79,11,19.42,17.34,34.51,18.83
					c0.13,0.02,1.3,0.16,3.25,0.16c0,0,0,0,0,0c10.69,0,46.06-4.36,52.81-60.4c0.01-0.1,0.02-0.2,0.02-0.3
					c0.01-0.76,0.72-76.22,11.65-116.55c0.61-1.77,14.85-43.58,15.48-65.58c0.15-1.6,1.64-18.44-2.49-28.16
					c-1.1-4.33-3.23-16.09-0.7-21.63c0.05-0.11,0.1-0.23,0.13-0.35c0.17-0.56,4.04-13.86-0.97-21.87c-1.93-3.09-4.85-5-8.68-5.67
					c-0.46-0.12-1.64-0.38-3.18-0.38c-1.31,0-3.13,0.19-5.05,1C447.51,132.37,446.64,126.82,444.07,122.75z M451.74,143.59
					c1.09,0,1.85,0.21,1.85,0.21c0.11,0.03,0.22,0.06,0.33,0.08c2.35,0.39,4.05,1.46,5.18,3.27c3.05,4.87,1.39,14.04,0.43,17.39
					c-3.68,8.39,0.08,23.48,0.52,25.18c0.04,0.13,0.08,0.27,0.14,0.39c3.8,8.68,2.17,25.64,2.15,25.81
					c-0.01,0.06-0.01,0.13-0.01,0.19c-0.57,21.17-15.05,63.67-15.25,64.26c-10.93,40.26-11.85,114.05-11.89,117.91
					c-6.26,51.57-37.95,55.58-47.52,55.58c-1.62,0-2.58-0.11-2.65-0.12c-13.56-1.34-23.91-6.93-30.77-16.61
					c-17.81-25.15-7.13-70.04-7.02-70.49c0.02-0.08,0.04-0.16,0.05-0.25c2.94-19.98,4.11-57.13,4.15-58.66
					c1.79-38.72-18.42-71.53-19.34-73c-12.1-17.6-3.27-48.17-3.18-48.47c0.02-0.08,0.04-0.16,0.06-0.25
					c4.27-21.98-4.67-37.22-5.11-37.96c-6.43-9.72-7.19-30.85-7.21-31.23c-1.03-10.74,0.92-18.92,5.81-24.3
					c6.02-6.63,14.91-7.34,18.45-7.34c0.69,0,1.12,0.03,1.22,0.04c5.78,0.36,10.25,2.54,13.67,6.66c9.56,11.53,6.9,33.94,6.87,34.16
					c-1.65,13.23-1.01,21.3,1.97,24.68c1.35,1.54,2.84,1.76,3.6,1.76c0.09,0,0.22-0.01,0.35-0.02v0c1.2-0.09,2.28-0.7,3.04-1.73
					c4.12-5.59-1.24-31.08-3.71-41.67c-1.9-10.11-0.99-17.77,2.66-22.17c3.42-4.12,8.23-4.33,9.16-4.33l0.2,0
					c3.33,0,5.88,1.01,7.79,3.08c3.59,3.9,5.05,11.67,4.2,22.48c-0.63,2.53-1,5.46-1.09,8.71c-0.9,5.38-1.94,9.23-1.95,9.27
					c-0.02,0.09-0.04,0.18-0.06,0.27c-1.47,8.9-1.1,14.28,1.14,16.92c0.9,1.06,2.14,1.67,3.4,1.67c0.08,0,0.19-0.01,0.31-0.02
					c0.79-0.04,1.53-0.39,2.08-1c0.72-0.8,2.41-2.66,0.42-22.99c-0.05-1.25-0.06-2.46-0.04-3.61c0.47-2.87,0.82-5.66,1.04-8.32
					c1.93-7.14,5.94-7.92,7.59-7.92c0.21,0,0.35,0.01,0.36,0.01c0.07,0.01,0.14,0.02,0.21,0.03c2.46,0.22,4.4,1.33,5.91,3.39
					c6.61,8.98,3.41,32.81,1.53,41.71c-2.6,5.16-1.01,11.82-0.94,12.1c0.19,0.76,0.7,1.41,1.41,1.75c0.76,0.37,1.52,0.56,2.25,0.56
					c0,0,0,0,0,0c1.26,0,2.42-0.55,3.28-1.55c3.19-3.72,1.88-15.2,1.11-20.3c0.99-11.65,4.62-18.32,9.99-18.32
					c1.01,0,1.72,0.24,1.72,0.24c0,0,0,0,0,0c0.15,0.06,0.3,0.1,0.45,0.13c3.51,0.69,5.99,2.23,7.56,4.72
					c2.6,4.13,2.78,11.02,0.52,19.94c-1.17,2.18-2,4.85-2.48,7.95c-1.18,3.2-2.25,5.58-2.63,6.38c-8.91,10.54-1.95,16.94-1.88,17.01
					c0.42,0.37,0.94,0.6,1.5,0.66c1.59,0.16,3.02-0.41,4.18-1.6c4.11-4.23,4.13-17.63,4.06-21.31c0.86-2.41,1.61-4.79,2.21-7.08
					C446.64,144.92,448.88,143.59,451.74,143.59z M367.17,134.59c0.59,4.71,0.85,8.61,0.65,10.96
					C367.32,143.86,366.84,140.63,367.17,134.59z M436.86,166.41c-0.29,1.89-0.66,3.47-1.08,4.52
					C435.63,169.87,435.8,168.38,436.86,166.41z"/>
			</g>
		</g>
	</g>
</g>
</svg>
