<?xml version="1.0" encoding="utf-8"?>
<!-- Generator: Adobe Illustrator 24.0.1, SVG Export Plug-In . SVG Version: 6.00 Build 0)  -->
<svg version="1.1" id="Layer_1" xmlns="http://www.w3.org/2000/svg" xmlns:xlink="http://www.w3.org/1999/xlink" x="0px" y="0px"
	 viewBox="0 0 500 500" style="enable-background:new 0 0 500 500;" xml:space="preserve">
<style type="text/css">
	.st0{fill:#CC9483;}
	.st1{fill:#808CB2;}
	.st2{fill:#97A5C1;}
	.st3{fill:#028487;}
	.st4{fill:#102B8C;}
	.st5{fill:#D8A798;}
	.st6{fill:#3D0C04;}
	.st7{fill:#601F1A;}
	.st8{fill:#2A4FC6;}
	.st9{fill:#00A5A5;}
	.st10{fill:#893170;}
	.st11{fill:#66124C;}
	.st12{fill:#151823;}
	.st13{fill:#66BCF7;}
	.st14{fill:#8ACDFF;}
	.st15{fill:#282A35;}
	.st16{fill:url(#SVGID_1_);}
	.st17{fill:#380F01;}
</style>
<g>
	<path class="st0" d="M301.36,168.93c-1.81,2.08-12.28,14.84-21.11,22.38c-1.87,1.06-5.09,2.8-6.01,3.48
		c-1.16,0.84-4.63,3.36-6.36,4.51c-1.15,0.76,0.3,1.71,2.24,0.87c0.62-0.28,3.25-1.43,4.23-1.75c-0.27,0.37-2.2,2.88-2.39,3.25
		c-1.73,2.98-2.12,3.05-2.73,4.21c-1.33,2.49-3.54,4.51-1.75,4.77c0.77,0.09,2.08-1.41,3.79-3.62l3.17-2.92
		c0.13,2.69-3.73,10.16-2.72,10.61c2.02,0.92,3.25-4.01,5.72-8.82c0.15-0.05-3.54,8.45-2.81,8.56c1.41,0.2,4.42-5.23,5.59-8.3
		c0.18-0.08,0.11,0.21,0.25,0.13c-1.33,3.58-3.25,6.82-2.55,6.7c0.87-0.15,4.44-3.66,4.87-6.21c2.5-2.34,4.7-6.49,5.28-8.52
		c0.25-0.87,0.38-1.7,0.42-2.44c3.84-5.56,21.68-12.73,24.53-17.88c0.89-1.61,4.95-5.41,4.89-10.39
		c-0.13-12.46-6.24-31.23-6.96-33.75C309.96,130.28,303.15,166.85,301.36,168.93z"/>
	<g>
		<g>
			<g>
				<path class="st1" d="M58.45,386.25c2.85,0,22.01,3.47,26.49,5.1c4.49,1.62,17.94,8.55,16.72,11c-1.23,2.44-2.86,1.01-4.69-0.2
					c-3.05-2.04-7.54-5.71-15.7-6.52c-8.13-0.81-22.62,0.82-24.25-0.81C55.39,393.19,58.45,386.25,58.45,386.25z"/>
				<path class="st2" d="M85.96,393.6c3.6,1.31,12,6.36,14.93,9.43c0.2-0.21,0.38-0.46,0.56-0.8c1.22-2.45-12.23-9.38-16.73-11.01
					c-4.47-1.63-20.57-4.96-23.42-4.96c0,0,2.45,1.84-3.26,3.06C65.53,390.52,82.3,392.26,85.96,393.6z"/>
			</g>
			<g>
				<path class="st1" d="M61.4,389.59c0,3.15-2.08,5.7-4.64,5.7l0,0c-2.57,0-4.65-2.55-4.65-5.7v-71.74c0-3.16,2.08-5.71,4.65-5.71
					l0,0c2.56,0,4.64,2.55,4.64,5.71V389.59z"/>
				<g>
					<path class="st2" d="M61.4,389.48v-71.74c0-2.81-1.66-5.12-3.83-5.6v82.94C59.74,394.61,61.4,392.29,61.4,389.48z"/>
				</g>
			</g>
			<g>
				<path class="st1" d="M54.66,386.2c-2.86,0-21.95,3.8-26.43,5.43c-4.49,1.63-17.94,8.56-16.73,11.01
					c1.23,2.44,2.87,1.01,4.69-0.21c3.07-2.03,7.55-5.71,15.7-6.51c8.17-0.83,22.63,0.8,24.26-0.83
					C57.78,393.46,54.66,386.2,54.66,386.2z"/>
				<path class="st2" d="M55.13,389.59c-5.71-1.22-3.27-3.05-3.27-3.05c-2.85,0-18.95,3.32-23.43,4.95
					c-4.48,1.64-17.94,8.56-16.71,11.01c0.17,0.36,0.37,0.6,0.56,0.81c2.93-3.07,11.34-8.13,14.94-9.43
					C30.87,392.53,47.64,390.79,55.13,389.59z"/>
			</g>
			<g>
				<path class="st1" d="M54.38,389.72c2.18,1.36,5.78,0.81,7.02-0.24c1.07,4.38,1.2,12.67,1.2,13.68c0,1.03-1.37,11.29-2.18,12.09
					c-0.82,0.82-3.02,1.01-3.54-0.75c-0.68-2.31-2.17-9.18-2.57-12.83C54.03,399.03,54.38,389.72,54.38,389.72z"/>
				<path class="st2" d="M57.87,390.91c0.72,0.21,2.6-0.16,3.42-0.61c0.3,2.55,1.24,9.34,1.02,10.97
					c-0.19,1.64-1.55,15.35-2.68,13.96c-0.81-1.02-0.31-6.35-0.31-12.47C59.34,401.03,57.87,390.91,57.87,390.91z"/>
			</g>
		</g>
		<path class="st1" d="M96.98,310.48c-1.64-2.55-70.16-1.28-76.03-0.32c-5.05,0.83-5.26,7.56-4.81,10.86
			c-0.02,0.07-0.11,0.17-0.08,0.24c0.48,2.35,10.98,6.84,41.46,6.84c22.9,0,40.32-2.93,41.46-6.84c0.02-0.05-0.03-0.07-0.03-0.12
			C100.97,318.22,98.37,312.69,96.98,310.48z"/>
		<path class="st2" d="M95.42,311.28c0,3.37-17.05,6.09-38.07,6.09c-21.04,0-38.09-2.72-38.09-6.09c0-3.35,17.05-6.08,38.09-6.08
			C78.37,305.2,95.42,307.93,95.42,311.28z"/>
	</g>
	<g>
		<g>
			<path class="st0" d="M136.48,275.05c-3.03,0.65-33.87-5.79-35.7-6.8c-1.82-1.01-13.75-21.87-12.46-25.49
				c1.3-3.63,11.62-14.71,12.74-13.31c1.12,1.38,9.95,25.52,12.47,25.77c2.52,0.27,25.04,11.26,26.34,12.46
				C141.17,268.9,136.48,275.05,136.48,275.05z"/>
		</g>
		<path class="st3" d="M97.7,219.79c1.95,2.34,11.3,22.13,11.3,22.13S91.79,256,90.87,256.08c-0.9,0.07-6.87-17.45-6.32-24.11
			C85.1,225.32,85.21,204.81,97.7,219.79z"/>
		<g>
			<g>
				<g>
					<g>
						<path class="st0" d="M119.53,330.64c-3.26,2.67-25,45.78-25.56,49.23c-1.89,11.48,2.5,16.99,8.91,24.12
							c-5.92,1.59-9,4.9-16.06-5.82c-2.87-4.37-7.71-9.53-7.34-12.75c0.58-5.05,2.6-5,5.87-11.3c4.83-9.3,7.35-33.64,19.18-47.1
							C111.75,318.79,122.77,327.98,119.53,330.64z"/>
					</g>
				</g>
				<path class="st4" d="M100.65,400.79c-2.36,0.2-11.6-5.39-14.5-14.86c-1.04-3.41-3.46-7.33-3.46-7.33s-5.36,3.71-5.16,6.08
					c0.2,2.37,0.6,3.92,5.5,9.31c2.85,3.15,5.97,14.09,12.21,14.16c6.25,0.08,13.34-0.02,10.15-2.73
					C102.19,402.71,100.65,400.79,100.65,400.79z"/>
			</g>
			<path class="st4" d="M86.78,293.21c0,0,25.68,21.06,17.46,27.57c-12.06,9.58-20.23,49.21-18.96,50.81
				c1.28,1.62,6.6,4.97,12.88,5.01c3.41-7.14,38.73-65.44,40.17-68.97c1.4-3.56,0.94-9.23-2.71-11.78
				c-3.64-2.56-28.21-3.53-30.23-3.9c-3.76-0.69-17.66-1.11-17.66-1.11L86.78,293.21z"/>
		</g>
		<path class="st5" d="M96.56,243.07c1.77-5.81-3.23-18.58-1.85-27.82c3.78-10.97,13.24-14.68,20.35-15.68
			c0,0-20.26-28.81-22.75-19.92c-5.12,18.34-7.71,19.85-16.44,27.63C64.87,217.1,94.62,249.44,96.56,243.07z"/>
		<g>
			<path class="st5" d="M95.11,177.76c3.43-11.88,12.53-13.88,21.97-11.15c9.43,2.72,12.78,11.34,9.34,23.2
				c-0.65,2.27-2.71,2.79-3.63,4.75c-0.05,1.15-0.03,4.46,0.13,6.12c-0.24,0.96-2.36,1.63-3.79,1.43
				c-3.82,5.15-7.16,9.63-12.98,5.83C97.9,202.54,91.67,189.65,95.11,177.76z"/>
			<path class="st6" d="M118.18,183.72l9.71-3.2c1.75-2.59-3.71-16.68-18.37-17.22c-13.62-0.52-17.39,5.89-19.89,13.47
				c-2.54,7.57-2.48,18.68-2.48,18.68s16.66-2.48,15.31-5.49c-0.83-1.84,0.94-8.04,3.66-7.67c1.31,0.18,2.23,2.21,2.23,2.21
				L118.18,183.72z"/>
			<path class="st6" d="M87.15,195.45c-7.98-1.3-5.26-20.4,0.84-24.46c-7.83-8.42,2.55-19.5,8.83-17.39c1.6-4.18,9.19,1,6.25,8.97
				c4.31-3.45,17.4,1.84,13.18,4.97c2.73,0.74-2.91,2.48-7.12,4.56C104.92,174.17,87.15,195.45,87.15,195.45z"/>
			<path class="st7" d="M127.07,180.36c0.87-5.1-6.23-10.2-12.94-6.97c-6.71,3.25-25.62,8.49-23.76-7.8
				c-2.73,5.2,1.51,13.92,8.21,13.67c6.71-0.26,16.93-3.75,19.78-3.63c5.2,0.26,4.47,5.98,6.21,5.72
				C126.33,181.11,127.07,180.36,127.07,180.36z"/>
			<path class="st7" d="M124.34,182.35c-1.89,0.87-2.73,2.49-6.72-0.75c-3.96-3.23-15.43-1.23-17.92-0.73
				c-2.46,0.51-3.97-2.48-3.97-2.48s1.12,2.37,5.85,1.12c4.72-1.25,15.53-1.63,18.29,0.36c2.72,1.99,4.71,1.49,4.71,1.49
				L124.34,182.35z"/>
		</g>
		<g>
			<g>
				<g>
					<g>
						<path class="st5" d="M128.01,349.13c-0.86,4.12,12.21,44.42,13.93,47.45c5.75,10.11,12.88,8.77,21.69,12.66
							c-3.61,4.97-5.78,7.17-18,3.24c-4.94-1.58-11.28,2.02-13.39-0.45c-4.77-5.62-0.78-2.24-2.47-12.59
							c-1.5-9.2-15.7-34.07-14.95-51.97C115.27,336.53,128.87,345.02,128.01,349.13z"/>
					</g>
				</g>
				<path class="st8" d="M156.05,406.03c-1.75,1.61-14.44,5.31-22.79-0.9c-3.76-2.8-4.08-1.17-4.08-1.17s-0.63,8.35,0.97,10.1
					c1.61,1.75,0.98,3.03,8.16,1.81c5.31-0.9,5.29-0.74,19.03-0.26c7.39,0.26,11.7-6.81,7.51-6.98
					C160.66,408.44,156.05,406.03,156.05,406.03z"/>
			</g>
			<path class="st8" d="M37.96,299.08c-0.57,7.4,1.71,12.53,5.69,14.8c4,2.28,62.49,6.8,64.77,8.5c-1.66,7.06,0.9,23.18,5.04,36.64
				c7.22,23.5,10.49,38.33,10.49,38.33s17.26-2.59,19.54-2.59c-2.07-13.35-9.94-61.23-10.23-67.72c-0.39-8.55,0.49-19.9-3.49-23.31
				c-4-3.42-53.11-15.48-56.52-16.62C69.83,285.99,37.96,299.08,37.96,299.08z"/>
		</g>
		<g>
			<path class="st3" d="M81.59,274.41c-0.66-3.83,7.89-20.44,9.35-29.59c3.03-9.37,5.14-16,4.43-17.44
				c-6.62-13.23-16.69-24.53-16.69-24.53c-5.69,5.31-13.98,13.43-18.78,24.24c-6.04,13.6-9.67,19.21-14.73,33.62
				c-2.95,8.42-4.16,11.71-7.93,23.41c-1.85,5.73-4.04,20.61-3.2,24.17c0.52,2.21,26.8-2.57,26.8-2.57l-0.39-12.49l5.59,11.24
				c0,0,17.1-4.12,20.35-7.31c3.25-3.19,4.55-4.04,4.55-4.04S82.31,278.65,81.59,274.41z"/>
			<g>
				<path class="st9" d="M84.63,273.14c0-16.95,10.42-14.62,11.88-23.77c0.22-8.73,0.61-21.6-0.53-22.75
					c-3.69-3.68-9.07-10.37-11.6-14.3c-1.52,1.39-2.85,2.26-3.41,4.18c-0.8,2.68,4.41,17.43,0.63,28.32
					c-1.79,5.16-11.46,27.37-8.85,33.64c1.54,3.69,7.83,12.9,13.91,17.95c3.67-2.99,11.37-5.81,11.37-5.81
					S84.63,277.45,84.63,273.14z"/>
			</g>
		</g>
	</g>
	<path class="st0" d="M219.28,261.08c-13.97-1.4-58.06-12.04-66.41-7.64c0,0-7.91,0.71-12.09,9.2
		c-1.63,3.32-33.78,32.79-43.29,35.75c-13.28,3.9-18.61,3.43-23.19,1.9c-6.62-1.08-6.43,2.76,0.43,8.87
		c3.51,3.11,13.01,0.29,17.36,6.54c4.84,6.93,10.02,2.42,11.38-2.46c1.49-5.36-0.33-4.95,6.78-7.37c7.1-2.42,34.73-6.32,43.76-24.88
		c5.44-11.16,39.89,18.27,72.73,3.78C244.17,277.07,219.28,261.08,219.28,261.08z"/>
	<path class="st1" d="M219.28,259.95c-4.73,0.56-31.91-5.85-34.75-5.28c-2.83,0.56-8.11,26.25-4.15,34.75
		c3.97,8.5,32.86,0.38,36.26-5.86C220.04,277.32,219.28,259.95,219.28,259.95z"/>
	<g>
		<g>
			<path class="st2" d="M414.66,324.15c-0.52,1.13-1.46,1.82-2.1,1.53l-95.64-43.54c-0.64-0.29-0.74-1.45-0.23-2.6l0,0
				c0.52-1.13,1.47-1.81,2.1-1.52l95.64,43.55C415.08,321.86,415.18,323.02,414.66,324.15L414.66,324.15z"/>
			<path class="st1" d="M417.62,398.26c0,1.67-1.36,3.03-3.03,3.03l0,0c-1.67,0-3.03-1.35-3.03-3.03V290.32
				c0-1.68,1.35-3.03,3.03-3.03l0,0c1.67,0,3.03,1.35,3.03,3.03V398.26z"/>
		</g>
		<g>
			<path class="st2" d="M443.75,346.16c-0.52,1.13-1.57,1.77-2.35,1.41l-115.42-52.55c-0.78-0.35-0.99-1.56-0.48-2.7l0,0
				c0.52-1.14,1.57-1.76,2.35-1.42l115.42,52.55C444.05,343.82,444.27,345.03,443.75,346.16L443.75,346.16z"/>
			<path class="st1" d="M445.23,415.37c0,1.87-1.52,3.39-3.39,3.39l0,0c-1.88,0-3.4-1.52-3.4-3.39V302.52c0-1.87,1.52-3.4,3.4-3.4
				l0,0c1.87,0,3.39,1.52,3.39,3.4V415.37z"/>
		</g>
		<g>
			<path class="st2" d="M189.38,333.17c0.5,1.14,1.49,1.81,2.17,1.5l99.14-46.17c0.68-0.31,0.81-1.49,0.29-2.63l0,0
				c-0.51-1.13-1.49-1.8-2.17-1.49l-99.14,46.18C188.98,330.87,188.85,332.03,189.38,333.17L189.38,333.17z"/>
			<path class="st1" d="M186.41,407.29c0,1.67,1.36,3.03,3.03,3.03l0,0c1.67,0,3.02-1.36,3.02-3.03V299.34
				c0-1.67-1.35-3.03-3.02-3.03l0,0c-1.67,0-3.03,1.36-3.03,3.03V407.29z"/>
		</g>
		<g>
			<path class="st2" d="M205.39,355.18c0.52,1.14,1.57,1.78,2.35,1.43l113.15-52.56c0.78-0.36,0.99-1.57,0.47-2.7l0,0
				c-0.51-1.14-1.57-1.77-2.34-1.42l-113.16,52.55C205.09,352.84,204.88,354.05,205.39,355.18L205.39,355.18z"/>
			<path class="st1" d="M203.91,424.39c0,1.88,1.52,3.4,3.4,3.4l0,0c1.87,0,3.39-1.52,3.39-3.4V311.54c0-1.87-1.52-3.4-3.39-3.4l0,0
				c-1.88,0-3.4,1.52-3.4,3.4V424.39z"/>
		</g>
		<g>
			<g>
				<path class="st10" d="M474.92,177.78c4.55-0.34,14.01,2.01,11.8,6.75l-39,118.22c-2.2,4.74-65.55-18.17-65.55-18.17
					c-2.1-3.75-3.83-6.35-1.94-10.4l27.16-92.29c1.88-4.05,4.87-5.76,8.87-6.06L474.92,177.78z"/>
				<path class="st11" d="M484.79,179.62c3.59,1.6,5.21,5.87,3.58,9.55l-34.02,112.78c-1.63,3.68-5.87,5.37-9.47,3.78l0,0
					c-3.61-1.59-5.22-5.87-3.59-9.56l34.03-112.78C476.93,179.71,481.17,178.02,484.79,179.62L484.79,179.62z"/>
			</g>
			<g>
				<path class="st10" d="M448.16,293.92c2.06,3.98-5.28,10.02-10.12,10.02l-101.92,10.53c-4.84,0-36.77-32.05-36.77-32.05
					c-4.26-1.7-0.17-7.08,3.96-7.08l91.4-3.92c4.12,0,31.03,13.69,41.21,16.74L448.16,293.92z"/>
				<path class="st11" d="M452.53,301.93c0.27,4.87-2.54,9-6.27,9.23l-114.02,6.97c-3.73,0.23-6.94-3.53-7.2-8.39l0,0
					c-0.27-4.87,2.54-9,6.26-9.23l114.02-6.98C449.05,293.31,452.28,297.07,452.53,301.93L452.53,301.93z"/>
				<path class="st11" d="M333.78,300.62c-6.31-1.13-27.33-23.91-31.17-24.32c-9.21-0.97-8.71,5.28-8.36,7.54
					c0.35,2.25,32.73,36.43,38.36,33.7C338.24,314.81,333.78,300.62,333.78,300.62z"/>
			</g>
			<g>
				<path class="st10" d="M324.97,304.32c2.46,3.98-5.77,6.64-11.54,6.64L200.8,321.49c-5.77,0-34.2-33.15-34.2-33.15
					c0.19-3.57,2.76-6.09,7.68-6.09l118.17-6.32c4.93,0,21.95,14.48,31.58,24.25L324.97,304.32z"/>
				<path class="st11" d="M330.72,308.95c0.32,4.87-3.03,9-7.47,9.22l-127.07,6.98c-4.45,0.24-8.28-3.53-8.6-8.39
					c0,0,3.03-9,7.47-9.23l127.07-6.98C326.57,300.33,330.42,304.09,330.72,308.95L330.72,308.95z"/>
				<path class="st11" d="M200.08,307.98c-7.53-1.13-24.93-25.09-29.53-25.09c-4.6,0-7.14,14.1-3.39,18.62
					c1.47,1.76,22.73,25.79,29.46,23.06C203.33,321.83,200.08,307.98,200.08,307.98z"/>
			</g>
		</g>
	</g>
	<g>
		<path class="st5" d="M236.56,265.23c-31.16-3.4-77.4,12.19-78.08,22.66c0,0-2.68,11.32,2.93,19.09
			c2.41,3.34,13.46,59.39,10.75,70.15c-4.49,14.51-5.46,16.61-9.57,20.07c-4.85,5.62,6.58,6.38,14.91,1.95
			c4.6-2.45,3.29-9.57,8.26-12.73c7.93-5.04,8.89-7.74,5.01-12.64c-1.79-2.25-2.32-4.61-2.45-5.81c-0.92-8.27,7.8-43.57-4.54-62.88
			c-7.43-11.64,56.09-5.1,69.68-16.43C269.73,275.09,236.56,265.23,236.56,265.23z"/>
		<path class="st1" d="M262.24,263.44c0,3.78,3.95,24.58-2.83,28.61c-12.09,7.18-49.2,4.16-49.2,6.42c0-6.04-0.38-18.13-6.42-23.41
			c-6.03-5.29-13.97-6.42-13.97-6.42s18.88-6.05,21.9-6.05c3.02,0,3.21-7.46,7.75-10.48C224.01,249.09,262.24,263.44,262.24,263.44z
			"/>
	</g>
	<g>
		<path class="st0" d="M230.8,154.01c8.12,23.61,12.82,20.46,16.06,23.04c4.87,3.87,14.23,23.99,13.4,41.92
			c-0.68,15.1-33.59,46.99-35.03,34.61c-1.42-12.38-1.64-18.5-4.02-27.45c-2.4-8.95-5.03-15.39-2.42-24.2
			c4.09-13.83,2.01-21.48-4.6-26.95C207.58,169.5,230.8,154.01,230.8,154.01z"/>
		<g>
			<path class="st0" d="M207.19,133.78c-8.79,3.08-11.76,7.83-8.97,21.54c0.17,0.86,1.78,2.39,2,3.21c0.05,0.18,0.11,0.34,0.15,0.55
				c0.01,3.67-0.33,9.33,0.09,10.15c0.37,0.64,2.24,1.53,3.86,1.17c0.98,1.92,1.35,3.34,2.16,4.73c2.06,3.58,3.43,4.24,4.63,4.06
				c4.47-0.73,8.91-4.24,13.22-6.79c5.89-3.51,3.13-13.02,1.79-20.1C223.9,140.56,218.44,129.85,207.19,133.78z"/>
			<path class="st12" d="M196.76,145.45c-2.3-1.13-0.48-0.99-3.54-3.05c-1.21-0.81-2.02-3.52-2.02-3.52l6.26-1.15
				c0,0-4.49,1.02-6.05,0.14c-0.38-0.22,10.23-5.17,10.23-5.17s6.6-5.88,16.46-6.69c6.54-0.51,8.44,2.04,8.44,2.04
				s13.94,3.39,11.65,24.33c0,0-0.92,13.65,2.52,15.32c-2.39,2.72-10.19-2.55-10.19-2.55s-4.85-6.89-4.61-9.42
				c0.48-5.41-4.55-6.07-5.24-3.92c-0.25,0.76,1.18,3.82,0.52,4.58c-0.62,0.68-2.55,5.01-2.6,4.24c-0.8-8.9-8.9-15.16-11.62-16.14
				c-2.71-0.95,5.82-7.64,8.22-8.94c2.4-1.32-4.39,1.09-9.46,7.68C204.72,144.57,196.76,145.45,196.76,145.45z"/>
			<path class="st0" d="M220.04,150.01c0.89-1.15,4.1-3.29,5.24-0.32c1.16,2.96,1.4,9.87-1.24,10.48
				C221.43,160.79,220.04,150.01,220.04,150.01z"/>
		</g>
		<path class="st13" d="M244.78,174.22c-3.78,7.55-22.47,16.62-25.5,16.62c-3.02,11.33-6.6,20.4-6.23,30.97c0,0,1.32,5.1,2.08,8.87
			c0.75,3.78-2.27,14.54,0.75,28.14c9.82,5.29,14.17,6.29,23.42,12.84c13.6,9.63,12.78,10.07,15.3,11.89
			c3.11,2.27,14.34,1.32,12.46-1.7c-1.28-2.05-4.72-33.61-2.46-54.01c2.27-20.4-4.91-38.15-10.95-44.95L244.78,174.22z"/>
		<path class="st14" d="M238.35,182.33c1.14,1.89,6.05,4.06,6.05,4.06s-4.63,8.87-6.52,14.17c-1.89,5.28-2.73,17.47-1.98,22.38
			c0.75,4.91-1.14,3.4,0.75,14.35c1.89,10.95,0.76,30.57-1.89,30.4c-4.53-0.29-15.86-7.93-20.11-8.78
			c-2.62-0.52,0.84-18.97,0.47-26.53c-0.39-7.55-1.89-7.18-1.51-13.59c0.38-6.42,4.53-27.57,6.04-25.31
			C221.17,195.75,238.35,182.33,238.35,182.33z"/>
		<g>
			<g>
				<g>
					<path class="st0" d="M280.18,260.14c-0.58,1.39-1.18,3.72-2.06,5.74c-0.62,1.4-1.25,3.08-0.56,8.44
						c0.13,0.98-0.42,3.12,0.78,2.66c1.2-0.44,1.85-4.39,1.71-5.94c-0.03-0.61,0.01,3.04-0.1,4.45c-0.05,0.52,0.1,2.05,0.03,3.79
						c-0.07,2.23-0.81,4.29-0.25,4.43c1.93,0.47,2.66-8.01,3.01-7.36c0.23,0.42-2.46,8.28-1.34,8.07c2.38-0.45,3.03-6.66,3.6-8.03
						c0,0-0.12,1.37-0.46,3.22c-0.27,1.45-2.01,3.82-1.45,4.14c1.95,1.16,3.83-7.84,4.23-8.04c0.57-0.31-2.51,6-1,5.67
						c0.74-0.16,3.38-6.79,3.38-6.79s1.3-9.93,0.84-13.54c-0.29-2.17,0.49-12.53,0.49-12.53l-9.06,2.27
						C281.97,250.79,281.07,258.01,280.18,260.14z"/>
				</g>
				<path class="st0" d="M242.32,190.08c-8.33,8.8-0.57,17.65,7.08,21.05c4.36,1.94,7.93,4.48,9.21,5.28
					c1.29,0.8,18.11,11.19,18.11,11.19s2.7,22.96,4.65,33.11c0,0,8.18,4.66,9.11,2.26c0.9-2.4,4.24-30,4.12-37.14
					c-0.11-6.75-0.97-8.77-2.51-9.14c-1.56-0.38-20.7-16.04-30.51-25.48C252.18,182.17,247.42,184.69,242.32,190.08z"/>
			</g>
			<path class="st12" d="M252.52,212.55c-0.58,4.04,23.09,15.58,23.09,15.58s12.04-15.3,14.88-13.6
				c-10.77-10.2-21.96-17.84-21.96-17.84S253.08,208.58,252.52,212.55z"/>
			<path class="st15" d="M272.16,226.71c-2.55,0-4.35-1.6-4.91-3.02c-0.56-1.41,11.61-17.37,17.28-15.67
				c5.67,1.7,3.12,2.26,3.12,2.26s-0.66-2.71-5.85,2.08C275.24,218.4,272.16,226.71,272.16,226.71z"/>
			<path class="st15" d="M263.47,221.9c-0.03,1.29-4.33-1.62-4.16-2.45c1.98-9.25,9.08-18.13,16.45-17.92c0,0,3.47,2.58,3.04,2.68
				c-0.44,0.11-5.23,0.78-7.95,4.48C268.15,212.39,263.56,217.18,263.47,221.9z"/>
		</g>
	</g>
	<g>
		<g>
			<g>
				<path class="st2" d="M366.97,392.98c0,0-15.23-2.67-16.38,2.14c-1.15,4.79-10.08,9.12-18,13.16c-2.54,1.29-3.23,2.01-3.45,3.17
					c-0.28,0.88-0.4,3.49,0.77,4.55c2,1.8,15.25,2.97,24.75-2.17c1.79-0.97,4.72-0.24,6.27,0.32c0.81,0.31,6.28-0.81,6.28-0.81
					s1.45-1.45,2.42-4.67C371.31,400.76,367.66,395.98,366.97,392.98z"/>
			</g>
			<path class="st4" d="M323.52,226.01c0,8.37,4.53,29.41,4.53,29.41c7.55,38.14,12.65,60.62,15.49,73.27c0,0,5.73,61.1,4.76,69.8
				c5.79,6.28,24.15,1.93,24.15,0c0-1.93,3.22-54.42-7.73-80.01c-0.97-21.41-3.38-51.68-0.48-62.3c2.89-10.63-1.93-31.87-6.28-39.12
				C353.61,209.8,323.52,226.01,323.52,226.01z"/>
			<g>
				<path class="st1" d="M388.87,397.98c0,0-16.4-2.86-17.64,2.31c-1.23,5.15-10.1,12.79-18.63,17.14
					c-2.73,1.39-3.47,2.17-3.71,3.41c-0.29,0.94-0.43,3.76,0.84,4.9c2.15,1.94,17.19,2.15,27.42-3.4c1.93-1.05,3.56-2.17,5.24-1.57
					c0.87,0.34,6.76-0.87,6.76-0.87s1.56-1.56,2.6-5.03C393.56,406.37,389.62,401.22,388.87,397.98z"/>
			</g>
			<path class="st4" d="M333.06,222.66c0,9.02,1.41,20.67,1.41,20.67c7.56,38.9,16.55,68.84,24.18,82.71c0,0,9.78,68.06,8.74,77.42
				c6.24,6.76,26.01,2.07,26.01,0c0-2.08,2.35-55.52-9.44-83.1c-1.04-23.05-7.65-58.05-4.53-69.49c3.12-11.44-5.52-34.12-10.2-41.92
				C364.53,201.16,333.06,222.66,333.06,222.66z"/>
			<path class="st8" d="M333.33,252.02c2.27,11.89,15.59,66.66,18.98,73.74c2.65,5.52,6.52,11.61,6.52,14.44
				c0,2.83,7.14,63.83,9.35,65.15c2.21,1.32,7.14,3.71,6.8,0.29c-2.83-28.89-8.5-58.92-9.63-65.71c-1.13-6.8-3.4-5.94-8.5-18.42
				C351.75,309.04,333.33,252.02,333.33,252.02z"/>
		</g>
		<g>
			<g>
				<path class="st0" d="M333.65,109.69c-15.68-11.09-26.03-23.25-26.03-23.25l-26.38,11.08c0,0,20.29,17.6,25.12,23.27
					c1.14,3.92-0.27,7.81,0.37,9.77c0.78,2.35,4.71-3.25,6.36-4.54c0.3,0.63,0.56,1.23,0.82,1.87
					C313.92,127.87,336.08,111.4,333.65,109.69z"/>
				
					<linearGradient id="SVGID_1_" gradientUnits="userSpaceOnUse" x1="342.5215" y1="96.2332" x2="313.9125" y2="30.2343" gradientTransform="matrix(0.9993 -0.0383 0.0383 0.9993 -24.0751 54.2999)">
					<stop  offset="0" style="stop-color:#FFFFFF"/>
					<stop  offset="0.6429" style="stop-color:#C6C0B9"/>
				</linearGradient>
				<polygon class="st16" points="310.97,90.16 320.41,142.63 305.64,127.89 305.94,120.94 299.31,112.93 295.85,86.74 				"/>
				<path class="st0" d="M265.35,87.81c-0.27-11.58,12.83-24.19,23.9-10.45c14.53,18.05,13.85,28.67,13.85,28.67
					c-2.2,7.08-2.69,11.28-7.72,12.54c-2.45,0.62-6.58-2.52-10.39-5.39c-1.98,0.84-4.25,1.5-4.9,0.14c-0.15-1.71-1.25-4.6-3.76-8.72
					C271.39,99.34,265.62,99.24,265.35,87.81z"/>
			</g>
			<g>
				<g>
					<path class="st17" d="M267.28,97.69c-6.74,0.97-1.36-0.78-5.03-1.43c-1.45-0.26-6.23-8.17-6.23-8.17l2.57-1.63
						c0,0-4.94-0.23-3.13-0.24c5.64-0.03,6.78-3.88,6.78-3.88s5.65-9.87,14.45-14.65c5.84-3.15,12.91-1.27,12.91-1.27
						s14.43-3.63,20.84,16.68c0,0,1.12,5.44,4.98,5.59c-1.08,3.51-6.39,9.87-6.39,9.87s-10.53-1.94-11.34-4.39
						c-1.75-5.2-4.79-7.02-6.57-4.12c-1.27,2.06,1.9,5.08,1.59,6.08c-0.28,0.86-1.11,0.73-1.49,0.04
						c-4.35-7.91-11.38-4.92-14.28-4.71c-2.9,0.22,0.74-9.21,2.45-11.4c1.68-2.19-3.18,4.06-4.77,11.52
						C274.24,93.23,267.28,97.69,267.28,97.69z"/>
				</g>
			</g>
			<g>
				<path class="st9" d="M386.31,230.3c-6.43-14.55-18.49-46.21-21.94-59.33c-3.47-13.12-4.57-24.72-14.3-45.49
					c-5.66-12.1-17.87-20.89-24.95-24.75c0,0-8.52,16.67-12.19,19.75c-3.2,2.69-8.36,5.17-8.43,2.02c0,0-0.27,15.09-0.34,15.89
					l1.83,1.82c1.39,17.81,1.21,30.82,4.12,39.73c4.53,13.84,19.83,59.88,21.82,65.94C333.91,251.94,387.11,232.07,386.31,230.3z"/>
				<g>
					<path class="st3" d="M313.59,123.1c-3.2,2.68-9.15,4.64-9.2,1.49c0,0-2.65,12.39-0.03,28.73c0,0,2.85,17.76,5.76,26.67
						c4.53,13.84,9.63,60.69,11.62,66.75c0.78,2.39,17.32,2.75,37.38-5.95c-4.45-17.14-22.03-75.8-26.36-91.2
						c-5.69-20.19-4.08-34.61-4.08-34.61l-6.96-4.13C320.07,114.85,315.12,121.82,313.59,123.1z"/>
				</g>
				<g>
					<path class="st3" d="M331.69,207.84c10.27-0.39,21.51-6.87,25.06-8.82c5.87,11.26,9.29,21.41,7.54,23.3
						c-1.74,1.88-27.52,7.7-27.52,7.7L331.69,207.84z"/>
					<path class="st9" d="M332.18,208.75c9.62-0.37,20.16-6.44,23.49-8.28c5.51,10.57,8.7,20.08,7.08,21.85
						c-1.63,1.76-25.8,7.23-25.8,7.23L332.18,208.75z"/>
				</g>
				<path class="st5" d="M273.92,200.44c0.94-0.08,2.49-0.39,2.49-0.39s5.18-2.87,4.83-2.76c-2,0.65-4.08,1.7-5.63,2.34
					c-1.55,0.63-2.04-0.35-1.41-0.99c0.84-0.83,5.54-4.56,7.32-5.05c1.18-0.33,5.88-1.58,9.29-1.78
					c2.89-1.45,22.73-18.09,27.29-20.04c2.17-13.69,2.13-34.28,3.07-38.38c0.94-4.12,20-0.77,20-0.77s8.48,24.37-9.76,49.98
					c-1.81,2.53-13.18,7.52-37.98,18.53c-1.49,1.43-3.81,2.96-4.55,3.43c-5.18,3.39-6.86,2.71-8.83,2.61
					c-2.07-0.1-2.64-0.82-3.45-1.07c-1.12-0.36-2-1.04-2.77-1.88c-1.3-1.46,1.74-1.13,1.74-1.13c-1.94,0.25-3.25-0.21-4.07-0.66
					L273.92,200.44z"/>
				<g>
					<g>
						<path class="st9" d="M321.16,121.25c-3.09,4.66-5.61,10.11-4.58,18.1c1.03,7.99,1.06,17.06,1.06,17.06s22.83-0.92,29.25,4.63
							c0,0,1.47-14.8,0.5-24.12c-1-9.32-5.58-20.5-13.76-21.34C325.44,114.75,321.16,121.25,321.16,121.25z"/>
					</g>
					<path class="st3" d="M337.87,118.41c7.08,3.11,9.28,19.94,8.33,32.16c-0.94,12.23-0.52,8.53-0.52,8.53s-8.89-2.78-10.59-2.71
						c3.44-6.65,2.04-35.51-0.62-38.53C331.79,114.84,337.87,118.41,337.87,118.41z"/>
				</g>
			</g>
		</g>
	</g>
	<path class="st12" d="M156.02,251.82c-0.57,5.67,3.4,27.2,3.4,27.2s-4.15,1.59-5.24,3.26c-2.13,3.26-10.63,14.3-23.09,17.7
		c-5.67-7.93-11.9-17-14.73-15.86c8.49-9.06,18.12-15.29,19.82-19.82c1.7-4.53,6.24-11.33,10.77-12.47
		C151.49,250.7,156.02,251.82,156.02,251.82z"/>
	<path class="st15" d="M148.37,290.35c-0.57-6.8-10.89-14.02-11.89-14.16c-1-0.15-6.23,0.56-2.83,3.4
		c3.4,2.83,9.77,10.76,9.21,13.59C142.29,296.02,148.37,290.35,148.37,290.35z"/>
	<path class="st15" d="M151.71,286.32c-0.13-1.85,3.33-3.33,3.18-4.46c-0.14-1.14-4.32-16.51-8.43-16.79
		c-4.11-0.28-6.43,4.42-5.16,4.6c1.26,0.19,4.82,2.13,6.8,5.53C150.62,279.54,151.35,281.21,151.71,286.32z"/>
	<g>
		<g>
			<path class="st5" d="M147.13,263.85c-1.46-1.03-1.81-2.09-2.73-2.26c-0.92-0.17-4.04-0.47-4.69-0.73
				c-0.66-0.26-1.73,0.05-1.73,0.05c-1.18-0.09-5.28,0.1-7.95,0.68c-2.02,0.43-28.44-6.11-28.44-6.11s-15.16-24.59-16.22-27.76
				c-1.04-3.16-18.27-2.14-14.26,6.46c4.02,8.63,18.33,31.26,21.41,32.42c8.05,3,35.49,3.55,35.99,3.63
				c0.99,0.15,8.89,1.76,10.37,1.56c0,0,2.5-0.07,3.05-0.64c0.3-0.29,1.69-1.33,0.74-1.65c-0.64-0.2-1.77-0.36-2.22-0.4
				c0.9,0.06,2.93,0.18,3.12-0.34c0.25-0.66,0.86-1.07-0.05-1.24c-0.39-0.08-1.58-0.84-2.15-0.92c1.21,0.13,2.97,1.22,3.09,0.75
				c0.2-0.78,0.56-1.42-0.52-1.9c-1.39-0.61-2.95-1.41-3.37-1.6c-0.52-0.26-0.63-0.41-0.29-0.5c1.02-0.3,3.64,0.06,4.48,0.53
				c0.88,0.48,2,1.52,2.68,1.33C148.1,265.02,148.58,264.87,147.13,263.85z"/>
			<path class="st9" d="M86.79,220.27c3.71,3.73,4.36,6.67,6.38,11.37c1.25,2.88,6.61,16.75,6.61,16.75s-15.99,8.98-17.58,10.48
				c-8.85-10.64-16.17-21.42-13.58-32.16C72.07,212.38,84.06,217.53,86.79,220.27z"/>
		</g>
	</g>
</g>
</svg>
