<?xml version="1.0" encoding="utf-8"?>
<!-- Generator: Adobe Illustrator 24.0.1, SVG Export Plug-In . SVG Version: 6.00 Build 0)  -->
<svg version="1.1" id="Layer_1" xmlns="http://www.w3.org/2000/svg" xmlns:xlink="http://www.w3.org/1999/xlink" x="0px" y="0px"
	 viewBox="0 0 120 500" style="enable-background:new 0 0 120 500;" xml:space="preserve">
<style type="text/css">
	.st0{fill:#29ABE2;}
</style>
<g id="XMLID_1224_">
	<path id="XMLID_517_" class="st0" d="M59.12,95.56c0,0-9.63,1.68-12.13,6.36c0,0,4.08,3.6,4.31,9.09c0,0,3.26-6.58,10.69-6.36
		l1.44-2.79l4.77-0.28l2.07-1.5l4.69-0.49l0.61-2.75l-0.76-1.71l-3.34-0.24l-3.19,1.22l-6.82,1.47L59.12,95.56z M62.43,276.41
		l4.91,0.66l1.8,3.04l4.32-1.9l5.28-4.5l0.16-2.16c0,0-3.89-1.98-4.81-2.05c-0.93-0.07-3.85-0.28-3.85-0.28l-0.76-4.55l-5.34,3.18
		c0,0-7.37-5.33-22.11-7.17c0,0-1.15,9.53-6.74,11.76c0,0,18.16,1.77,25.32,7.87L62.43,276.41z M71.78,106.28l-2.97-1.76l-4.69,2.04
		c0,0-8.81,0.4-12.35,7.89c0,0,3.12,2.6,3.62,8.53c0,0,3.04-4.95,11.64-6.71l2.31-2l3.35-0.59l3.11-1.53l0.27-3.8l4.54-1.33
		l0.17-2.36l-2.5-1.21l-4.06-0.29L71.78,106.28z M60.08,85.08l-3.13,0.39L55.1,83.9c0,0-10.22,2.78-11.43,8.06l2.93,6.62
		c0,0,4.86-4.4,10.43-5.66l2.32-2.11l3.19,0.23l1.96-2.86l3.32-0.17l-0.7-4.7l-4.15,0.17L60.08,85.08z M57.63,63.83
		c0,0-4.07-2.98-4.15-3.3c-0.08-0.32-0.41-2.92-0.41-2.92s-3.98,0.75-4.4,0.82c-0.42,0.07-2.31,0.45-2.61,0.33
		c-0.3-0.12-0.63-1.29-0.63-1.29s-7.39-0.64-10.18,2.16c0,0,2.14,3.25,1.27,6.7c0,0,3.46-2.85,8.21-2.1l4.42-1.13l3.53-0.26
		l4.31,3.31L57.63,63.83z M48.34,72.98c0,0,0.25-2.05,0.87-2c0.62,0.04,4.56,1.26,4.56,1.26l2.36,0.27l-0.39-1.78l-3.38-3.34
		l-1.97-2.73l-5.85,2.27c0,0-5.64-0.61-8.23,2.4c0,0,2.28,4.19,0.96,9.68C37.26,79,42.99,72.7,48.34,72.98z M93.39,176.35
		l-3.02-4.04c0,0-2.62-0.91-3.08-0.22c-0.46,0.69-2.32,2.11-2.32,2.11s-10.43-2.92-17.54-0.33c0,0,1.04,5.65-0.67,9.35
		c0,0,12.17-1.09,18.35,1.32l3.36-2.96l0.9-2.42l3.81,5.96l3.62,2.87l2.62-3.35c0,0-1.27-2.47-1.25-2.78
		c0.02-0.31,4.05-4.57,4.17-4.87c0.13-0.3-1-3.38-1-3.38l-4.47,1.75L93.39,176.35z M76.7,115.42l-5.71,3.31l-2.6-0.5
		c0,0-8.96,1.73-12.08,6.36c0,0,2.6,2.67,2.85,7.75c0,0,4.92-5.23,13.56-4.71l0.19-2.67l3.14-0.6l1.99-1.82l2.51-1.89l4.63,1.68
		l4.17-1.97l-0.76-2.33l-5.35-0.38l-3.37-2L76.7,115.42z M83.84,200.04l2.48-2.92l3.19,0.23l2.86,3.31l3.85,2.45l6.38-5.33
		c0,0-0.95-2.55-1.31-2.57c-0.36-0.03-4.72,1.62-4.72,1.62l-3.56-2.22l-5.99-2.91l-1.47-2.48l-2.91-1.24c0,0-8.06-2.85-16.14-1.16
		c0,0,1.16,6.9-0.32,10.21C66.18,197.02,78.81,196.68,83.84,200.04z M93.09,161.96l-3.37-0.55l-1.12-1.73c0,0-1.92-0.55-2.54-0.6
		c-0.62-0.04-4.36,0.2-4.36,0.2l-0.21-1.36c0,0-10.83-0.26-16.22,3.59c0,0,3.07,5.49,1.68,10.35c0,0,7.82-3.88,16.96-1.57l1.6-3.5
		l4,0.39l2.48,2.87l3.8,1.82l1.9-1.93l-2.03-3.35l3.75-1.9l0.28-3.91l-1.84-1.68L93.09,161.96z M82.92,129.51l-4.17,0.53l-5.02,0.88
		l-0.54-1.07c0,0-9.91-0.2-13.47,6.26c0,0,4.01,3.08,2.73,10.94c0,0,6.74-5.34,15.47-5.29l0.27-3.8l3.69-0.97l3.03-1.95l5.65,0.41
		l5.4,1.11l0.33-4.63l-5.79-1.45l-0.94-2.75l-3.8-0.27L82.92,129.51z M92.41,142.69l-5.06-1.4l-4.36,3.1l-3.62,0.05l-0.4,1.31
		l-0.95-1.1c0,0-9.49-0.27-15.01,4.71c0,0,2.38,4.3,1.62,9.11c0,0,6.55-4.9,15.87-3.71l1.99-3.27l5.76,0.41l2.78-1.35l6.64,1.1
		l1.39-3.57l-6.47-1.96L92.41,142.69z M51.07,380.37l-0.52-3.6l4.8,0.04l7.89-6.25l3.14-2.72l-2.98-3.78l-4.82-1.9l-4.15,3.89
		l-2.01,2.03l-1.84-2.46c0,0-12.7,4.2-22.91,3.93c0,0,5.05,7.34,2.7,16.31C30.37,385.86,44.21,385.3,51.07,380.37z M93.62,241.46
		c0.03-0.46-3.45-3.81-3.45-3.81l-5.75-1.89L81.67,233l-5.98,1.27c-3.36-5.05-19.63-7.15-19.63-7.15
		c0.93,6.42-3.56,12.92-3.56,12.92c6.97,0.04,20.49,8.14,20.49,8.14l3.03-5.52l4.9,0.82l3.73,1.97l5.44,1.9l3.96,0.94
		C94.05,248.31,93.58,241.92,93.62,241.46z M77.91,261.56l7.85,0.72l-0.15-4.35l-6.42-3.41l-2.45-4.67l-5.76,2.53
		c0,0-7.52-7.52-20.52-7.83c0,0-1.41,8.89-6.7,11.3c0,0,17.53,1.88,22.85,7.69L71.2,260l0.88,7.19l7.99,3.06l1.37,4.59l5.23-3.81
		l0.28-3.93l-7.55-2.79L77.91,261.56z M76.57,400.81l-5.99-9.42l-3.2-11.54l1.86-2.19l5.2,3.16l3.85-3.91l-1.77-3.38l-9.29-4.39
		l-6.9,5.39l-5.27,6.44L48,384.34c0,0-8.37,4.36-16.8,2.98l1.62,3.37c0,0,9.67,1.32,19.18-5.9l6.32,0.45c0,0-4.85,13.6-5.35,14.03
		c-0.5,0.43-3.4,10.61-3.4,10.61l2.64,6.39l7.93,3.98l12.08,8.77l-0.81,11.26l-8.52,12.87l-8.79,8.05c0,0-3.47,9.51-3.52,10.13
		l2.2,1.71l4.07-2.65c0,0,4.05-2.5,4.24-2.95c0.19-0.45,2.68-4.92,3.03-5.52c0.35-0.59,2.78-6.31,2.78-6.31l8.11-9.34
		c0,0,4.3-16.74,4.51-17.5s2.28-12.24,2.28-12.24l-4.64-6.53L76.57,400.81z M52.94,386.71c-7.32,6.91-19.51,6.19-19.51,6.19
		l-0.61,8.48l5.57,6.6l8.82,4.51l9.58-25.5L52.94,386.71z M94.2,209.73l-2.39-1.3l-1.67-4.1l-4.61-0.54l-3.44,0.37
		c0,0-5.92-5.39-17.39-3.83c0,0,0.46,6.54-1.61,9.49c0,0,15.21,1.09,18.05,3.37l4.94-2.54l2.77,3.09l4.79,0.97l7.3-2.38l0.85-3.19
		l-2.02-2.06L94.2,209.73z M54.6,74.98L51,76.27l-2.05-1.7c0,0-8.34,2.4-10.6,6.52c0,0,3.95,3.95,3.9,7.57c0,0,2.12-5.01,9.86-6.42
		l1.18-1.98l4.56-0.24l3.34,0.91l3.42-2.96L61.8,75.5l-3.06,0.81L54.6,74.98z M90.24,221.69l-3.56-4.44l-3.32,0.85l-3.04-0.84
		c0,0-7.41-4.72-18.72-4.76c0,0-0.15,8.51-2.85,11.57c0,0,14.77,1.04,19.44,5.58l3.69-3.92l5.92,1.67l6.74,1.1l4.53-2.62L96.65,223
		L90.24,221.69z M34.74,56.71c0,0,5.2-1.9,10.3-0.91l3.2-2.77l3.54,1.08l1.63-1.12l-4.07-2.26l4.95-1.3l-0.45-2.31l-7.02,1.35
		c0,0,0.61-4.19,1.34-4.24c0.73-0.05,5.76,1.76,5.76,1.76l5.04-0.36l-4.07-2.98c0,0-4.9-2.32-5.08-2.64
		c-0.18-0.32-1.04-4.21-1.04-4.21l-6.45,0.57c0,0-3.97-0.8-4.35-1.35c-0.37-0.54-4.69,6.28-4.69,6.28l0.46,10.88L34.74,56.71z
		 M55.11,294.18l3.24,0.23l6.17-1.73l3.75,1.67l4.19-2.18l0.28-3.85L70,283.16l-1.72-1.98l-7.05,3.21l-3.84-0.43l-0.8-1.76
		c0,0-12.21-4.75-24.01-4.52c0,0,0.38,9.79-5.76,15.4c0,0,19.2,0.3,28.42,7.78L55.11,294.18z M49.12,319.16l1.33-3.47l6.39-2.64
		l5.56-4.09l4.79,2.36l4.61,2.66l2.73-5.69l-1.95-5.25l-9.17-8.25l-4.89,3.37l-2.39,5.25l-2.05,2.64l-2.8-2.06
		c0,0-12.52-4.78-24.95-4.43c0,0,2.4,9.78-1.99,16.91C24.36,316.45,39.8,321.59,49.12,319.16z M49.4,360.57l-1.79-5.24l5.71,0.41
		l4.46,4.77l6.21,2.04c0,0,4.32,2.48,5.55,2.57c1.23,0.09,6.84-2.45,6.84-2.45l-1.47-5.38l-6.53-1.86l-9.15-2.05l3-2.88l2.3-1.85
		l6.78,0.49l2.16-4.18l-2.17-6.51l-7.63-3.8l-8.39,0.33l0.71,5.17l-4.76,5.86l-4.15-0.45l-1.61,0.81c0,0-15.65,2.13-22.42-0.68
		c0,0,4.89,9.65,2.67,16.78C25.71,362.43,38.85,364.92,49.4,360.57z M46.71,341.93l0.44-6.17l5.62-0.53l2.94-2.11l5.76-0.36
		l2.24-5.26l-2.24-5.43l-6.01-0.43l-5.41,5.19l-4.21-0.77c0,0-14.65,1.12-21.22-2.3c0,0,1.04,11.39-1.19,16.5
		C23.43,340.25,33.25,343.75,46.71,341.93z"/>
</g>
</svg>
